<svg xmlns:mydata="http://www.w3.org/2000/svg" mydata:contrastcolor="ffffff" mydata:template="BlackAndHighlightColorHex1" mydata:presentation="2.5" mydata:layouttype="undefined" mydata:specialfontid="undefined" mydata:id1="928" mydata:id2="655" mydata:companyname="Credenciales QR" mydata:companytagline="Conéctate con seguridad" version="1.1"
    xmlns="http://www.w3.org/2000/svg"
    xmlns:xlink="http://www.w3.org/1999/xlink" viewBox="65 127.41537290131399 420 215.16925419737206" class="watermark-logo">
    <g fill="#00c1d5" fill-rule="none" stroke="none" stroke-width="1" stroke-linecap="butt" stroke-linejoin="miter" stroke-miterlimit="10" stroke-dasharray="" stroke-dashoffset="0" font-family="none" font-weight="none" font-size="none" text-anchor="none" style="mix-blend-mode: normal">
        <g data-paper-data="{&quot;isGlobalGroup&quot;:true,&quot;bounds&quot;:{&quot;x&quot;:65,&quot;y&quot;:127.41537290131399,&quot;width&quot;:420,&quot;height&quot;:215.16925419737206}}">
            <g data-paper-data="{&quot;isSecondaryText&quot;:true}" fill-rule="nonzero">
                <path d="M173.24576,335.50555c0.09343,-0.41931 0.21976,-0.8283 0.45975,-1.19086c0.20554,-0.3104 0.50563,-0.3369 0.77155,-0.08032c0.1513,0.146 0.25951,0.32198 0.34471,0.50883c0.21084,0.4624 0.2054,0.46268 0.67477,0.26522c0.09343,-0.03932 0.1262,-0.08339 0.09552,-0.18909c-0.12843,-0.44204 -0.33955,-0.83527 -0.67812,-1.14972c-0.3917,-0.36381 -0.94627,-0.43214 -1.38859,-0.16761c-0.24947,0.14921 -0.41415,0.38236 -0.54746,0.63782c-0.41066,0.78647 -0.55276,1.6382 -0.59041,2.50986c-0.02594,0.60017 0.02719,1.19908 0.09175,1.79702c0.08102,0.75189 0.20178,1.49624 0.41052,2.22275c0.16692,0.58079 0.39156,1.13494 0.8481,1.56471c0.38487,0.36228 0.88854,0.36758 1.26588,-0.0053c0.36535,-0.36088 0.58609,-0.80906 0.74784,-1.2868c0.2298,-0.6791 0.42112,-1.36795 0.51037,-2.08275c0.04978,-0.39853 0.05926,-0.39756 -0.32491,-0.467c-0.05438,-0.0099 -0.10905,-0.0198 -0.16399,-0.0251c-0.11448,-0.01088 -0.1658,0.03347 -0.18016,0.15799c-0.08827,0.76458 -0.27498,1.50712 -0.53142,2.23167c-0.12118,0.34234 -0.27512,0.66989 -0.53003,0.93721c-0.12787,0.13401 -0.1863,0.12996 -0.3203,0.00502c-0.26941,-0.25114 -0.42098,-0.57423 -0.53282,-0.91336c-0.40564,-1.23004 -0.54983,-2.50094 -0.57019,-3.78885c-0.02552,-0.50437 0.02803,-1.00093 0.13763,-1.49136z" data-paper-data="{&quot;glyphName&quot;:&quot;C&quot;,&quot;glyphIndex&quot;:0,&quot;firstGlyphOfWord&quot;:true,&quot;word&quot;:1}" style="fill: rgb(255, 255, 255);"></path>
                <path d="M182.17724,338.56978c0.04978,0.71256 0.16162,1.41202 0.37734,2.09223c0.18797,0.59306 0.43312,1.15628 0.90249,1.59413c0.37064,0.34568 0.87766,0.42851 1.32528,0.2008c0.38138,-0.19411 0.61453,-0.52585 0.80236,-0.89008c0.50033,-0.96998 0.64507,-2.02571 0.70057,-3.09539c0.02845,-0.54899 0.00655,-1.0998 -0.05606,-1.64949c-0.07767,-0.68133 -0.20038,-1.3501 -0.43897,-1.99378c-0.17696,-0.47718 -0.39839,-0.93051 -0.77308,-1.29098c-0.46965,-0.45166 -1.10022,-0.47871 -1.59831,-0.06484c-0.37552,0.31208 -0.59557,0.72762 -0.76611,1.17343c-0.38264,1.00052 -0.49698,2.0451 -0.50646,3.05328c0.0138,0.32602 0.01199,0.5978 0.03096,0.87069zM183.31134,334.91577c0.10166,-0.27234 0.22855,-0.53142 0.41875,-0.75537c0.34331,-0.40411 0.60087,-0.34778 0.90053,0.01436c0.3779,0.45654 0.55122,1.01111 0.69485,1.57419c0.25002,0.9803 0.28335,1.98193 0.22953,2.98258c-0.04183,0.77699 -0.17723,1.54533 -0.49057,2.26863c-0.12411,0.2867 -0.26202,0.56949 -0.52166,0.76081c-0.24277,0.17877 -0.40146,0.1598 -0.6229,-0.05104c-0.29032,-0.27666 -0.45431,-0.63099 -0.59041,-0.99731c-0.23915,-0.64409 -0.36088,-1.31315 -0.42531,-1.99685c-0.0304,-0.32309 -0.00879,-0.64563 -0.03444,-0.8877c-0.00711,-1.04765 0.1011,-1.99852 0.44162,-2.9123z" data-paper-data="{&quot;glyphName&quot;:&quot;O&quot;,&quot;glyphIndex&quot;:1,&quot;word&quot;:1}" style="fill: rgb(255, 255, 255);"></path>
                <path d="M197.11804,337.7665c-0.04197,-0.64898 -0.09343,-1.29572 -0.21084,-1.93466c-0.09845,-0.53547 -0.21488,-1.06912 -0.47537,-1.55634c-0.3705,-0.69304 -1.15251,-0.80529 -1.71921,-0.26341c-0.43437,0.41527 -0.70894,0.92675 -0.92968,1.47086c-0.31654,0.78005 -0.46728,1.60445 -0.63085,2.42941c-0.0297,-0.50423 -0.07907,-1.00832 -0.08395,-1.51284c-0.00572,-0.58971 -0.03528,-1.18054 0.02273,-1.77067c0.01353,-0.13749 0.03695,-0.27485 0.03988,-0.41415c0.00056,-0.02552 -0.00167,-0.04727 -0.00655,-0.06624c-0.22632,-0.01506 -0.45236,-0.03068 -0.67924,-0.03263c-0.00516,0.01408 -0.01032,0.02831 -0.01408,0.04783c-0.07209,0.36772 -0.07586,0.74101 -0.0898,1.11179c-0.01771,0.47258 -0.00711,0.94613 0.02663,1.41899c0.03319,0.46561 0.03235,0.93414 0.0753,1.39863c0.06177,0.66808 0.12578,1.33588 0.22255,2.00075c0.1011,0.69402 0.23692,1.37855 0.44539,2.04788c0.02259,0.07265 0.04128,0.13066 0.05912,0.17919c0.2503,0.00098 0.49238,-0.04769 0.73543,-0.09719c-0.00195,-0.03277 -0.00739,-0.0707 -0.01604,-0.11588c-0.11881,-0.61788 -0.15325,-1.24482 -0.18588,-1.87051c-0.02663,-0.51106 0.01255,-1.02506 0.07126,-1.53208c0.09636,-0.83262 0.245,-1.65869 0.49419,-2.46162c0.19411,-0.62527 0.4373,-1.22739 0.92006,-1.69788c0.25281,-0.2464 0.46937,-0.20889 0.63168,0.10988c0.19411,0.3811 0.28112,0.79595 0.36172,1.20954c0.20164,1.03426 0.24403,2.08358 0.26927,3.13346c0.01102,0.45696 0.02231,0.91476 0.00962,1.37144c-0.0159,0.56796 0.02106,1.13675 -0.03193,1.70373c-0.00655,0.0707 0.02315,0.09775 0.09106,0.10988c0.17124,0.03068 0.34331,0.0343 0.51636,0.0343c0.0661,0 0.1043,-0.01924 0.10835,-0.09301c0.00767,-0.13889 0.0311,-0.27736 0.03082,-0.41596c-0.00376,-1.31399 0.02705,-2.62853 -0.05801,-3.94252z" data-paper-data="{&quot;glyphName&quot;:&quot;N&quot;,&quot;glyphIndex&quot;:2,&quot;word&quot;:1}" style="fill: rgb(255, 255, 255);"></path>
                <path d="M203.81307,334.20877c0.48332,-0.06624 0.96593,-0.13805 1.44953,-0.2015c0.23943,-0.03138 0.26313,-0.05634 0.22395,-0.29395c-0.00892,-0.05452 -0.00753,-0.111 -0.00906,-0.1665c-0.00683,-0.24473 -0.06819,-0.2959 -0.30204,-0.25769c-0.20233,0.03305 -0.40578,0.06052 -0.60826,0.09287c-0.42712,0.06819 -0.85438,0.13652 -1.28094,0.20791c-0.11393,0.0191 -0.19313,0.05968 -0.21865,0.20359c-0.06721,0.37817 -0.09915,0.75928 -0.12048,1.14066c-0.02719,0.48708 -0.03068,0.97765 -0.01743,1.46891c0.02315,0.85898 0.09747,1.72005 0.1856,2.56718c0.06233,0.59919 0.14014,1.19685 0.23357,1.79214c0.08604,0.54871 0.13108,1.15795 0.35433,1.67041c0.04671,0.10723 0.1064,0.11588 0.19104,0.10458c0.31863,-0.04281 0.63838,-0.0806 0.95464,-0.1368c0.52334,-0.09315 0.45598,0.01966 0.37525,-0.56182c-0.02845,-0.20526 -0.06401,-0.21433 -0.27861,-0.17709c-0.19662,0.03416 -0.39491,0.05787 -0.59222,0.08757c-0.07126,0.01074 -0.10877,-0.00711 -0.12578,-0.08757c-0.0905,-0.42893 -0.15353,-0.86247 -0.22088,-1.2953c-0.03124,-0.20136 0.50507,-0.20638 0.64493,-0.2319c0.00865,-0.00153 0.01799,-0.00349 0.02371,-0.01018c0.00725,-0.00851 0.00586,-0.02106 0.00404,-0.03207c-0.03375,-0.20791 -0.06749,-0.41582 -0.1011,-0.62388c-0.00139,-0.00879 -0.00321,-0.01813 -0.00962,-0.02412c-0.00865,-0.00809 -0.02217,-0.00725 -0.03402,-0.00558c-0.15144,0.01994 -0.3019,0.04783 -0.45055,0.08339c-0.05717,0.01367 -0.12564,0.0258 -0.16775,-0.01534c-0.02663,-0.02608 -0.03347,-0.06568 -0.03849,-0.10263c-0.09747,-0.724 -0.14377,-1.46431 -0.18253,-2.19346c-0.01367,-0.25532 -0.01046,-0.51162 -0.03333,-0.76653c-0.06387,-0.71228 -0.01687,-1.42247 0.04337,-2.13239c0.00586,-0.06791 0.04281,-0.09399 0.10779,-0.10291zM204.31395,333.16029c0.07502,0.0053 0.09705,-0.03333 0.11811,-0.07405c0.17361,-0.33648 0.34666,-0.67338 0.5218,-1.00902c0.04908,-0.09399 0.02719,-0.15785 -0.06652,-0.20373c-0.10988,-0.05397 -0.22283,-0.10375 -0.32644,-0.16817c-0.12843,-0.07976 -0.20694,-0.03709 -0.26885,0.08269c-0.16343,0.3164 -0.32756,0.63238 -0.4914,0.9485c-0.02343,0.04532 -0.05438,0.09733 -0.00892,0.13847c0.15562,0.14112 0.35405,0.20429 0.52222,0.2853z" data-paper-data="{&quot;glyphName&quot;:&quot;É&quot;,&quot;glyphIndex&quot;:3,&quot;word&quot;:1}" style="fill: rgb(255, 255, 255);"></path>
                <path d="M211.94377,335.50555c0.09343,-0.41931 0.21976,-0.8283 0.45975,-1.19086c0.20554,-0.3104 0.50563,-0.3369 0.77155,-0.08032c0.1513,0.146 0.25951,0.32198 0.34471,0.50883c0.21084,0.4624 0.2054,0.46268 0.67477,0.26522c0.09343,-0.03932 0.1262,-0.08339 0.09552,-0.18909c-0.12843,-0.44204 -0.33955,-0.83527 -0.67812,-1.14972c-0.3917,-0.36381 -0.94627,-0.43214 -1.38859,-0.16761c-0.24947,0.14921 -0.41415,0.38236 -0.54746,0.63782c-0.41066,0.78647 -0.55276,1.6382 -0.59041,2.50986c-0.02594,0.60017 0.02719,1.19908 0.09175,1.79702c0.08102,0.75189 0.20178,1.49624 0.41052,2.22275c0.16692,0.58079 0.39156,1.13494 0.8481,1.56471c0.38487,0.36228 0.88854,0.36758 1.26588,-0.0053c0.36535,-0.36088 0.58609,-0.80906 0.74784,-1.2868c0.2298,-0.6791 0.42112,-1.36795 0.51037,-2.08275c0.04978,-0.39853 0.05926,-0.39756 -0.32491,-0.467c-0.05438,-0.0099 -0.10905,-0.0198 -0.16399,-0.0251c-0.11448,-0.01088 -0.1658,0.03347 -0.18016,0.15799c-0.08827,0.76458 -0.27498,1.50712 -0.53142,2.23167c-0.12118,0.34234 -0.27512,0.66989 -0.53003,0.93721c-0.12787,0.13401 -0.1863,0.12996 -0.3203,0.00502c-0.26941,-0.25114 -0.42098,-0.57423 -0.53282,-0.91336c-0.40564,-1.23004 -0.54983,-2.50094 -0.57019,-3.78885c-0.02552,-0.50437 0.02803,-1.00093 0.13763,-1.49136z" data-paper-data="{&quot;glyphName&quot;:&quot;C&quot;,&quot;glyphIndex&quot;:4,&quot;word&quot;:1}" style="fill: rgb(255, 255, 255);"></path>
                <path d="M221.45386,342.09978c0.00697,0.07697 0.03653,0.16148 0.12648,0.1414c0.13958,-0.03124 0.42112,0.02608 0.53491,-0.06735c0.10347,-0.08492 0.06582,-0.28224 0.0502,-0.40007c-0.28475,-2.15275 -0.41248,-4.35165 -0.28698,-6.52127c0.01576,-0.2715 0.04574,-0.54216 0.06345,-0.81352c0.01506,-0.23245 0.87753,-0.15548 1.06382,-0.16468c0.02175,-0.00112 0.04476,-0.00251 0.06303,-0.01464c0.02859,-0.01896 0.03598,-0.05731 0.03974,-0.09148c0.01408,-0.12773 0.04895,-0.39588 -0.02217,-0.51079c-0.07307,-0.11797 -0.16873,-0.09245 -0.3065,-0.07335c-0.03319,0.0046 -0.06679,0.0053 -0.10012,0.00641c-0.6671,0.02287 -1.33435,0.0442 -2.00145,0.06861c-0.08729,0.00321 -0.23692,-0.01534 -0.28112,0.08395c-0.01715,0.03863 -0.01715,0.08213 -0.01673,0.12425c0.00098,0.10472 0.00181,0.20945 0.00279,0.31417c0.00056,0.07112 0.00948,0.1566 0.07293,0.18881c0.03249,0.01659 0.07098,0.0138 0.10723,0.0106c0.19341,-0.01687 0.38194,-0.02705 0.57605,-0.02887c0.16064,0 0.07809,0.26048 0.06972,0.37078c-0.07655,1.00637 -0.08743,2.008 -0.05843,3.0081c0.04239,1.45664 0.16956,2.90979 0.30315,4.36894z" data-paper-data="{&quot;glyphName&quot;:&quot;T&quot;,&quot;glyphIndex&quot;:5,&quot;word&quot;:1}" style="fill: rgb(255, 255, 255);"></path>
                <path d="M231.48445,341.92093c-0.0159,-0.81352 -0.05201,-1.62676 -0.0343,-2.20643c0.00404,-1.11974 -0.00474,-2.00438 -0.05899,-2.88929c-0.03918,-0.63796 -0.07014,-1.27564 -0.17612,-1.90649c-0.07586,-0.45208 -0.19006,-0.89175 -0.46644,-1.27327c-0.36562,-0.50479 -0.94683,-0.54356 -1.36502,-0.08492c-0.2404,0.26383 -0.39282,0.57911 -0.5278,0.9043c-0.57423,1.38287 -0.75774,2.84007 -0.8039,4.31986c-0.02161,0.68983 0.03235,1.37981 0.05675,2.06964c0.01632,0.46184 0.06177,0.91992 0.11183,1.37785c0.00823,0.07586 0.0145,0.15325 0.02914,0.22925h0.69778c0.0007,-0.01255 0.00084,-0.02552 -0.00098,-0.04016c-0.01576,-0.12662 -0.02594,-0.25393 -0.03835,-0.38082c-0.03082,-0.31459 -0.05703,-0.62973 -0.09468,-0.94348c-0.01339,-0.11156 0.03556,-0.15116 0.12954,-0.17194c0.5271,-0.11658 1.06076,-0.18225 1.59985,-0.2008c0.21544,-0.00739 0.216,-0.00084 0.21614,0.22339c0.00028,0.35684 0.00321,0.71382 -0.00112,1.07052c-0.00153,0.1294 0.04992,0.18449 0.17863,0.17723c0.08897,-0.00502 0.17835,-0.00056 0.26759,-0.0007c0.28084,-0.00028 0.28572,-0.00042 0.28042,-0.27373zM230.56816,340.03634c-0.55304,-0.00586 -1.09729,0.07 -1.63583,0.19034c-0.10598,0.02371 -0.16203,0.01255 -0.1605,-0.12313c0.00683,-0.59654 -0.02496,-1.19476 0.00906,-1.78949c0.07251,-1.2702 0.26508,-2.51977 0.78661,-3.69682c0.08353,-0.18867 0.16901,-0.37692 0.30301,-0.53603c0.14377,-0.17068 0.20024,-0.16678 0.32491,0.01548c0.17096,0.24975 0.23831,0.53854 0.29283,0.82802c0.10709,0.56838 0.14154,1.14428 0.17626,1.72144c0.04211,0.70057 0.06972,1.40072 0.0647,2.10227c0,0.37357 -0.00376,0.74714 0.00209,1.12072c0.00181,0.12271 -0.03877,0.16859 -0.16315,0.16719z" data-paper-data="{&quot;glyphName&quot;:&quot;A&quot;,&quot;glyphIndex&quot;:6,&quot;word&quot;:1}" style="fill: rgb(255, 255, 255);"></path>
                <path d="M237.85909,342.09978c0.00697,0.07697 0.03653,0.16148 0.12648,0.1414c0.13958,-0.03124 0.42112,0.02608 0.53491,-0.06735c0.10347,-0.08492 0.06582,-0.28224 0.0502,-0.40007c-0.28475,-2.15275 -0.41248,-4.35165 -0.28698,-6.52127c0.01576,-0.2715 0.04574,-0.54216 0.06345,-0.81352c0.01506,-0.23245 0.87753,-0.15548 1.06382,-0.16468c0.02175,-0.00112 0.04476,-0.00251 0.06303,-0.01464c0.02859,-0.01896 0.03598,-0.05731 0.03974,-0.09148c0.01408,-0.12773 0.04895,-0.39588 -0.02217,-0.51079c-0.07307,-0.11797 -0.16873,-0.09245 -0.3065,-0.07335c-0.03319,0.0046 -0.06679,0.0053 -0.10012,0.00641c-0.6671,0.02287 -1.33435,0.0442 -2.00145,0.06861c-0.08729,0.00321 -0.23692,-0.01534 -0.28112,0.08395c-0.01715,0.03863 -0.01715,0.08213 -0.01673,0.12425c0.00098,0.10472 0.00181,0.20945 0.00279,0.31417c0.00056,0.07112 0.00948,0.1566 0.07293,0.18881c0.03249,0.01659 0.07098,0.0138 0.10723,0.0106c0.19341,-0.01687 0.38194,-0.02705 0.57605,-0.02887c0.16064,0 0.07809,0.26048 0.06972,0.37078c-0.07655,1.00637 -0.08743,2.008 -0.05843,3.0081c0.04239,1.45664 0.16956,2.90979 0.30315,4.36894z" data-paper-data="{&quot;glyphName&quot;:&quot;T&quot;,&quot;glyphIndex&quot;:7,&quot;word&quot;:1}" style="fill: rgb(255, 255, 255);"></path>
                <path d="M247.43386,333.71266c-0.00892,-0.05452 -0.00753,-0.111 -0.00906,-0.1665c-0.00683,-0.24473 -0.06819,-0.2959 -0.30204,-0.25769c-0.20233,0.03305 -0.40578,0.06052 -0.60826,0.09287c-0.42712,0.06819 -0.85438,0.13652 -1.28094,0.20791c-0.11393,0.0191 -0.19313,0.05968 -0.21865,0.20359c-0.06721,0.37817 -0.09915,0.75928 -0.12048,1.14066c-0.02719,0.48708 -0.03068,0.97765 -0.01743,1.46891c0.02315,0.85898 0.09747,1.72005 0.1856,2.56718c0.06233,0.59919 0.14014,1.19685 0.23357,1.79214c0.08604,0.54871 0.13108,1.15795 0.35433,1.67041c0.04671,0.10723 0.1064,0.11588 0.19104,0.10458c0.31863,-0.04281 0.63838,-0.0806 0.95464,-0.1368c0.52334,-0.09315 0.45598,0.01966 0.37525,-0.56182c-0.02845,-0.20526 -0.06401,-0.21433 -0.27861,-0.17709c-0.19662,0.03416 -0.39491,0.05787 -0.59222,0.08757c-0.07126,0.01074 -0.10877,-0.00711 -0.12578,-0.08757c-0.0905,-0.42893 -0.15353,-0.86247 -0.22088,-1.2953c-0.03138,-0.20136 0.50507,-0.20638 0.64493,-0.2319c0.00865,-0.00153 0.01799,-0.00349 0.02371,-0.01018c0.00725,-0.00851 0.00586,-0.02106 0.00404,-0.03207c-0.03375,-0.20791 -0.06749,-0.41582 -0.1011,-0.62388c-0.00139,-0.00879 -0.00321,-0.01813 -0.00962,-0.02412c-0.00865,-0.00809 -0.02217,-0.00711 -0.03402,-0.00558c-0.15144,0.01994 -0.3019,0.04783 -0.45055,0.08339c-0.05717,0.01367 -0.12564,0.0258 -0.16775,-0.01534c-0.02663,-0.02608 -0.03347,-0.06568 -0.03849,-0.10263c-0.09747,-0.724 -0.14377,-1.46431 -0.18253,-2.19346c-0.01367,-0.25532 -0.01046,-0.51162 -0.03333,-0.76653c-0.06387,-0.71228 -0.01687,-1.42247 0.04337,-2.13239c0.00572,-0.06763 0.04267,-0.09385 0.10765,-0.10277c0.48332,-0.06624 0.96593,-0.13805 1.44953,-0.2015c0.23957,-0.03151 0.26313,-0.05648 0.22409,-0.29409z" data-paper-data="{&quot;glyphName&quot;:&quot;E&quot;,&quot;glyphIndex&quot;:8,&quot;lastGlyphOfWord&quot;:true,&quot;word&quot;:1}" style="fill: rgb(255, 255, 255);"></path>
                <path d="M261.21234,335.50555c0.09343,-0.41931 0.21976,-0.8283 0.45975,-1.19086c0.20554,-0.3104 0.50563,-0.3369 0.77155,-0.08032c0.1513,0.146 0.25951,0.32198 0.34471,0.50883c0.21084,0.4624 0.2054,0.46268 0.67477,0.26522c0.09343,-0.03932 0.1262,-0.08339 0.09552,-0.18909c-0.12843,-0.44204 -0.33955,-0.83527 -0.67812,-1.14972c-0.3917,-0.36381 -0.94627,-0.43214 -1.38859,-0.16761c-0.24947,0.14921 -0.41415,0.38236 -0.54746,0.63782c-0.41066,0.78647 -0.55276,1.6382 -0.59041,2.50986c-0.02594,0.60017 0.02719,1.19908 0.09175,1.79702c0.08102,0.75189 0.20178,1.49624 0.41052,2.22275c0.16692,0.58079 0.39156,1.13494 0.8481,1.56471c0.38487,0.36228 0.88854,0.36758 1.26588,-0.0053c0.36535,-0.36088 0.58609,-0.80906 0.74784,-1.2868c0.2298,-0.6791 0.42112,-1.36795 0.51037,-2.08275c0.04978,-0.39853 0.05926,-0.39756 -0.32491,-0.467c-0.05438,-0.0099 -0.10905,-0.0198 -0.16399,-0.0251c-0.11448,-0.01088 -0.1658,0.03347 -0.18016,0.15799c-0.08827,0.76458 -0.27498,1.50712 -0.53142,2.23167c-0.12118,0.34234 -0.27512,0.66989 -0.53003,0.93721c-0.12787,0.13401 -0.1863,0.12996 -0.3203,0.00502c-0.26941,-0.25114 -0.42098,-0.57423 -0.53282,-0.91336c-0.40564,-1.23004 -0.54983,-2.50094 -0.57019,-3.78885c-0.02552,-0.50437 0.02803,-1.00093 0.13763,-1.49136z" data-paper-data="{&quot;glyphName&quot;:&quot;C&quot;,&quot;glyphIndex&quot;:9,&quot;firstGlyphOfWord&quot;:true,&quot;word&quot;:2}" style="fill: rgb(255, 255, 255);"></path>
                <path d="M270.14382,338.56978c0.04978,0.71256 0.16162,1.41202 0.37734,2.09223c0.18797,0.59306 0.43312,1.15628 0.90249,1.59413c0.37064,0.34568 0.87766,0.42851 1.32528,0.2008c0.38138,-0.19411 0.61453,-0.52585 0.80236,-0.89008c0.50033,-0.96998 0.64507,-2.02571 0.70057,-3.09539c0.02845,-0.54899 0.00655,-1.0998 -0.05606,-1.64949c-0.07767,-0.68133 -0.20038,-1.3501 -0.43897,-1.99378c-0.17696,-0.47718 -0.39839,-0.93051 -0.77308,-1.29098c-0.46965,-0.45166 -1.10022,-0.47871 -1.59831,-0.06484c-0.37552,0.31208 -0.59557,0.72762 -0.76611,1.17343c-0.38264,1.00052 -0.49698,2.0451 -0.50646,3.05328c0.0138,0.32602 0.01199,0.5978 0.03096,0.87069zM271.27793,334.91577c0.10166,-0.27234 0.22855,-0.53142 0.41875,-0.75537c0.34331,-0.40411 0.60087,-0.34778 0.90053,0.01436c0.3779,0.45654 0.55122,1.01111 0.69485,1.57419c0.25002,0.9803 0.28335,1.98193 0.22953,2.98258c-0.04183,0.77699 -0.17723,1.54533 -0.49057,2.26863c-0.12411,0.2867 -0.26202,0.56949 -0.52166,0.76081c-0.24277,0.17877 -0.40146,0.1598 -0.6229,-0.05104c-0.29032,-0.27666 -0.45431,-0.63099 -0.59041,-0.99731c-0.23915,-0.64409 -0.36088,-1.31315 -0.42531,-1.99685c-0.0304,-0.32309 -0.00879,-0.64563 -0.03444,-0.8877c-0.00711,-1.04765 0.1011,-1.99852 0.44162,-2.9123z" data-paper-data="{&quot;glyphName&quot;:&quot;O&quot;,&quot;glyphIndex&quot;:10,&quot;word&quot;:2}" style="fill: rgb(255, 255, 255);"></path>
                <path d="M285.08462,337.7665c-0.04197,-0.64898 -0.09343,-1.29572 -0.21084,-1.93466c-0.09845,-0.53547 -0.21488,-1.06912 -0.47537,-1.55634c-0.3705,-0.69304 -1.15251,-0.80529 -1.71921,-0.26341c-0.43437,0.41527 -0.70894,0.92675 -0.92968,1.47086c-0.31654,0.78005 -0.46728,1.60445 -0.63085,2.42941c-0.0297,-0.50423 -0.07907,-1.00832 -0.08395,-1.51284c-0.00572,-0.58971 -0.03528,-1.18054 0.02273,-1.77067c0.01353,-0.13749 0.03695,-0.27485 0.03988,-0.41415c0.00056,-0.02552 -0.00167,-0.04727 -0.00655,-0.06624c-0.22632,-0.01506 -0.45236,-0.03068 -0.67924,-0.03263c-0.00516,0.01408 -0.01032,0.02831 -0.01408,0.04783c-0.07209,0.36772 -0.07586,0.74101 -0.0898,1.11179c-0.01771,0.47258 -0.00711,0.94613 0.02663,1.41899c0.03319,0.46561 0.03235,0.93414 0.0753,1.39863c0.06177,0.66808 0.12578,1.33588 0.22255,2.00075c0.1011,0.69402 0.23692,1.37855 0.44539,2.04788c0.02259,0.07265 0.04128,0.13066 0.05912,0.17919c0.2503,0.00098 0.49238,-0.04769 0.73543,-0.09719c-0.00195,-0.03277 -0.00739,-0.0707 -0.01604,-0.11588c-0.11881,-0.61788 -0.15325,-1.24482 -0.18588,-1.87051c-0.02663,-0.51106 0.01255,-1.02506 0.07126,-1.53208c0.09636,-0.83262 0.245,-1.65869 0.49419,-2.46162c0.19411,-0.62527 0.4373,-1.22739 0.92006,-1.69788c0.25281,-0.2464 0.46937,-0.20889 0.63168,0.10988c0.19411,0.3811 0.28112,0.79595 0.36172,1.20954c0.20164,1.03426 0.24403,2.08358 0.26927,3.13346c0.01102,0.45696 0.02231,0.91476 0.00962,1.37144c-0.0159,0.56796 0.02106,1.13675 -0.03193,1.70373c-0.00655,0.0707 0.02315,0.09775 0.09106,0.10988c0.17124,0.03068 0.34331,0.0343 0.51636,0.0343c0.0661,0 0.1043,-0.01924 0.10835,-0.09301c0.00767,-0.13889 0.0311,-0.27736 0.03082,-0.41596c-0.00376,-1.31399 0.02705,-2.62853 -0.05801,-3.94252z" data-paper-data="{&quot;glyphName&quot;:&quot;N&quot;,&quot;glyphIndex&quot;:11,&quot;lastGlyphOfWord&quot;:true,&quot;word&quot;:2}" style="fill: rgb(255, 255, 255);"></path>
                <path d="M300.72886,340.29676c-0.24696,-0.79497 -0.61579,-1.53752 -0.96287,-2.28996c-0.23747,-0.51483 -0.51636,-1.01307 -0.66668,-1.56457c-0.15395,-0.56489 -0.23064,-1.13382 -0.02315,-1.70346c0.11295,-0.30999 0.26411,-0.60017 0.60101,-0.71647c0.44288,-0.15297 0.87864,0.02928 1.12058,0.45557c0.3659,0.64465 0.43325,1.32333 0.41554,2.04802c-0.00725,0.29939 0.69611,0.48987 0.70712,0.30078c0.01032,-0.17779 0.00209,-0.3567 0.00209,-0.53519c0,-0.90165 -0.11895,-1.42164 -0.47774,-2.12151c-0.48666,-0.94934 -1.61588,-1.13982 -2.34769,-0.64995c-0.36242,0.24249 -0.57368,0.60296 -0.70517,1.00693c-0.22799,0.70043 -0.17235,1.40309 0.01757,2.10241c0.17054,0.62764 0.48652,1.19351 0.75649,1.77876c0.31919,0.69165 0.65776,1.37534 0.88282,2.10589c0.10138,0.32909 0.19048,0.66278 0.17779,1.01307c-0.00376,0.10221 -0.04323,0.18323 -0.14014,0.22799c-0.10277,0.04755 -0.15199,-0.03612 -0.21112,-0.08994c-0.21154,-0.19271 -0.30622,-0.44539 -0.3627,-0.71689c-0.02036,-0.09747 -0.04643,-0.19048 -0.17891,-0.16385c-0.14684,0.02956 -0.29228,0.06665 -0.43995,0.0912c-0.09984,0.01673 -0.11323,0.0746 -0.09691,0.1559c0.09775,0.4875 0.29423,0.92159 0.68621,1.24622c0.25728,0.21307 0.55053,0.26913 0.85954,0.14488c0.4723,-0.19006 0.6321,-0.60073 0.60282,-1.06829c-0.02217,-0.35893 -0.10891,-0.71103 -0.21656,-1.05755z" data-paper-data="{&quot;glyphName&quot;:&quot;S&quot;,&quot;glyphIndex&quot;:12,&quot;firstGlyphOfWord&quot;:true,&quot;word&quot;:3}" style="fill: rgb(255, 255, 255);"></path>
                <path d="M309.99936,333.71266c-0.00892,-0.05452 -0.00753,-0.111 -0.00906,-0.1665c-0.00683,-0.24473 -0.06819,-0.2959 -0.30204,-0.25769c-0.20233,0.03305 -0.40578,0.06052 -0.60826,0.09287c-0.42712,0.06819 -0.85438,0.13652 -1.28094,0.20791c-0.11393,0.0191 -0.19313,0.05968 -0.21865,0.20359c-0.06721,0.37817 -0.09915,0.75928 -0.12048,1.14066c-0.02719,0.48708 -0.03068,0.97765 -0.01743,1.46891c0.02315,0.85898 0.09747,1.72005 0.1856,2.56718c0.06233,0.59919 0.14014,1.19685 0.23357,1.79214c0.08604,0.54871 0.13108,1.15795 0.35433,1.67041c0.04671,0.10723 0.1064,0.11588 0.19104,0.10458c0.31863,-0.04281 0.63838,-0.0806 0.95464,-0.1368c0.52334,-0.09315 0.45598,0.01966 0.37525,-0.56182c-0.02845,-0.20526 -0.06401,-0.21433 -0.27861,-0.17709c-0.19662,0.03416 -0.39491,0.05787 -0.59222,0.08757c-0.07126,0.01074 -0.10877,-0.00711 -0.12578,-0.08757c-0.0905,-0.42893 -0.15353,-0.86247 -0.22088,-1.2953c-0.03138,-0.20136 0.50507,-0.20638 0.64493,-0.2319c0.00865,-0.00153 0.01799,-0.00349 0.02371,-0.01018c0.00725,-0.00851 0.00586,-0.02106 0.00404,-0.03207c-0.03375,-0.20791 -0.06749,-0.41582 -0.1011,-0.62388c-0.00139,-0.00879 -0.00321,-0.01813 -0.00962,-0.02412c-0.00865,-0.00809 -0.02217,-0.00711 -0.03402,-0.00558c-0.15144,0.01994 -0.3019,0.04783 -0.45055,0.08339c-0.05717,0.01367 -0.12564,0.0258 -0.16775,-0.01534c-0.02663,-0.02608 -0.03347,-0.06568 -0.03849,-0.10263c-0.09747,-0.724 -0.14377,-1.46431 -0.18253,-2.19346c-0.01367,-0.25532 -0.01046,-0.51162 -0.03333,-0.76653c-0.06387,-0.71228 -0.01687,-1.42247 0.04337,-2.13239c0.00572,-0.06763 0.04267,-0.09385 0.10765,-0.10277c0.48332,-0.06624 0.96593,-0.13805 1.44953,-0.2015c0.23957,-0.03151 0.26313,-0.05648 0.22409,-0.29409z" data-paper-data="{&quot;glyphName&quot;:&quot;E&quot;,&quot;glyphIndex&quot;:13,&quot;word&quot;:3}" style="fill: rgb(255, 255, 255);"></path>
                <path d="M318.67942,339.7888c-0.31835,0.02873 -0.63615,0.06456 -0.95324,0.10389c0.02524,0.20275 0.08771,0.397 0.14865,0.59766c0.00892,0.02942 0.01339,0.05731 0.01534,0.08436c0.24459,-0.02385 0.49043,-0.03974 0.7325,-0.07865c0.13164,-0.0212 0.14488,0.01367 0.11769,0.12285c-0.08701,0.34973 -0.23287,0.67254 -0.44316,0.96482c-0.11407,0.15869 -0.25574,0.18937 -0.42154,0.08897c-0.08492,-0.05146 -0.17263,-0.10891 -0.23636,-0.18309c-0.30343,-0.35293 -0.54523,-0.74756 -0.71437,-1.18012c-0.40578,-1.03733 -0.57158,-2.11942 -0.57186,-3.32924c-0.00014,-0.76416 0.11769,-1.59218 0.45808,-2.2841c0.13247,-0.26927 0.34791,-0.54579 0.64758,-0.56168c0.27317,-0.0145 0.50549,0.19564 0.66836,0.41541c0.14028,0.18909 0.2556,0.39644 0.34303,0.61509c0.04783,0.11978 0.06707,0.41568 0.19857,0.47328c0.1216,0.05327 0.28433,0.01478 0.42893,0.01227c0.18421,-0.00335 0.21614,-0.0456 0.18309,-0.22437c-0.10821,-0.58609 -0.38794,-1.0885 -0.77754,-1.52748c-0.24696,-0.27833 -0.56559,-0.44636 -0.94753,-0.46979c-0.60463,-0.03709 -1.00735,0.28293 -1.28387,0.77127c-0.48108,0.85005 -0.61105,1.79354 -0.63587,2.74915c-0.01534,0.58762 0.02942,1.17803 0.1294,1.75993c0.13972,0.81324 0.32756,1.61393 0.72637,2.34644c0.22897,0.42057 0.48164,0.82495 0.86498,1.13118c0.52041,0.41582 1.13494,0.33536 1.5279,-0.20526c0.2959,-0.40732 0.48457,-0.86079 0.58134,-1.35206c0.03068,-0.15576 0.09189,-0.24263 0.26467,-0.21781c0.03821,0.00544 0.07739,0.00558 0.11658,0.00432v-0.72079c-0.38891,0.03514 -0.7788,0.05857 -1.16771,0.09357z" data-paper-data="{&quot;glyphName&quot;:&quot;G&quot;,&quot;glyphIndex&quot;:14,&quot;word&quot;:3}" style="fill: rgb(255, 255, 255);"></path>
                <path d="M325.82284,338.85365c0.16427,1.09366 0.33564,2.52297 1.21136,3.29201c0.53742,0.47188 1.21024,0.14042 1.53766,-0.40439c0.21307,-0.35461 0.29757,-0.76987 0.36702,-1.17775c0.37218,-2.18607 0.3871,-4.40032 0.47802,-6.60898c0.0046,-0.11142 -0.04267,-0.16594 -0.15771,-0.16273c-0.11713,0.00335 -0.23427,-0.00056 -0.3514,0.00042c-0.20108,0.00167 -0.22116,0.01604 -0.21558,0.22269c0.01618,0.60226 -0.03863,1.20271 -0.04337,1.80469c-0.00237,0.29925 -0.00544,0.6017 -0.02956,0.90095c-0.05341,0.66418 -0.09301,1.32933 -0.15757,1.9928c-0.05689,0.58553 -0.08924,1.17343 -0.20735,1.75143c-0.0693,0.33885 -0.15325,0.6738 -0.34303,0.9697c-0.18741,0.29242 -0.30524,0.30343 -0.53365,0.05076c-0.06317,-0.06972 -0.12383,-0.14488 -0.16998,-0.22632c-0.59654,-1.05127 -0.68941,-2.36387 -0.75244,-3.54608c-0.06596,-1.23743 -0.00614,-2.50568 0.08213,-3.7222c0.00502,-0.06944 0.01938,-0.16273 -0.07405,-0.18253c-0.15729,-0.03333 -0.31194,-0.08673 -0.47648,-0.08074c-0.08799,0.00321 -0.13038,0.0463 -0.13944,0.13289c-0.03235,0.30887 -0.0813,0.61676 -0.09761,0.92647c-0.03444,0.65776 -0.06624,1.31106 -0.06693,1.9638c-0.0007,0.70001 0.0343,1.39933 0.14,2.1031z" data-paper-data="{&quot;glyphName&quot;:&quot;U&quot;,&quot;glyphIndex&quot;:15,&quot;word&quot;:3}" style="fill: rgb(255, 255, 255);"></path>
                <path d="M340.03453,339.32093c-0.04211,0.00223 -0.0806,0.02259 -0.11253,0.06875c-0.16482,0.23817 -0.44246,0.38877 -0.73446,0.36521c-0.57772,-0.04657 -1.07972,-0.31291 -1.58786,-0.62137c0.18379,-0.08074 0.34889,-0.14251 0.50409,-0.22311c1.37004,-0.71173 2.20727,-1.77597 2.19235,-3.38125c-0.0046,-0.49322 -0.1796,-0.93707 -0.52459,-1.30018c-0.49893,-0.52501 -1.09924,-0.58413 -1.6976,-0.17458c-0.29744,0.20359 -0.5416,0.46073 -0.75872,0.74631c-0.56252,0.74017 -0.90848,1.57545 -1.09464,2.5114c-0.00627,-0.15897 -0.02496,-0.28865 -0.04309,-0.41582c-0.0357,-0.25016 -0.01157,-0.50102 -0.03793,-0.74993c-0.03988,-0.3779 -0.02761,-0.75579 -0.006,-1.13424c0.02133,-0.37204 0.03319,-0.74477 0.04895,-1.11709c0.00349,-0.08311 -0.02622,-0.13944 -0.11741,-0.15186c-0.13763,-0.01882 -0.27457,-0.04309 -0.4122,-0.06122c-0.10249,-0.01353 -0.15478,0.03193 -0.16203,0.13917c-0.01938,0.28809 -0.06387,0.57577 -0.06233,0.86358c0.00335,0.65706 -0.02454,1.31385 0.02175,1.97161c0.04755,0.67645 0.12355,1.34787 0.23943,2.01539c0.18909,1.08948 0.4161,2.1706 0.77127,3.21964c0.19648,0.58023 0.04936,0.52083 0.67993,0.3051c0.01046,-0.00363 0.02064,-0.00851 0.0311,-0.01199c0.09036,-0.0304 0.11142,-0.08018 0.08171,-0.17765c-0.25309,-0.83025 -0.39547,-1.68101 -0.45794,-2.54514c0.05968,-0.02175 0.08339,0.02496 0.11727,0.05006c0.55499,0.41178 1.15809,0.72637 1.83188,0.89286c0.72414,0.17905 1.37046,-0.06275 1.80874,-0.65985c0.00321,-0.00446 0.00558,-0.00851 0.00851,-0.01283c-0.01645,0.02371 -0.31724,-0.42182 -0.52766,-0.41094zM336.97204,338.58522c-0.17528,0.05634 -0.18755,0.0442 -0.18658,-0.0548c0.07893,-1.33755 0.42321,-2.49104 1.23353,-3.47371c0.13122,-0.15911 0.28447,-0.29953 0.45598,-0.41485c0.33997,-0.22869 0.62081,-0.16901 0.86818,0.187c0.20847,0.29995 0.2623,0.6381 0.23901,0.99787c-0.04881,0.75412 -0.41066,1.35247 -0.93163,1.86535c-0.34568,0.34025 -0.77294,0.55848 -1.22335,0.73055c-0.15046,0.05745 -0.3019,0.11323 -0.45515,0.16259z" data-paper-data="{&quot;glyphName&quot;:&quot;R&quot;,&quot;glyphIndex&quot;:16,&quot;word&quot;:3}" style="fill: rgb(255, 255, 255);"></path>
                <path d="M346.29946,340.17794c0.05843,0.69025 0.15199,1.37757 0.22562,2.06671c0.00279,0.02552 0.00753,0.04769 0.01353,0.06819h0.71131c0.00265,-0.02831 0.00167,-0.06136 -0.00363,-0.10138c-0.04323,-0.32993 -0.09231,-0.65929 -0.12438,-0.99034c-0.08311,-0.85605 -0.17612,-1.71182 -0.23092,-2.56997c-0.04072,-0.63796 -0.08144,-1.27731 -0.0746,-1.91778c0.00363,-0.34011 0.0007,-0.68021 0.0007,-1.02032c0,-0.34011 0,-0.68021 0,-1.02032c0,-0.19508 0.00363,-0.39031 -0.00153,-0.58539c-0.0007,-0.02803 -0.00251,-0.05257 -0.00502,-0.07474h-0.68677c-0.00237,0.00934 -0.00614,0.01645 -0.00795,0.02677c-0.02357,0.13861 -0.02468,0.27749 -0.02482,0.4168c-0.00028,1.40309 -0.00655,2.80577 0.09454,4.20719c0.03584,0.49838 0.07181,0.99703 0.11393,1.49457z" data-paper-data="{&quot;glyphName&quot;:&quot;I&quot;,&quot;glyphIndex&quot;:17,&quot;word&quot;:3}" style="fill: rgb(255, 255, 255);"></path>
                <path d="M353.36202,336.84782c-0.00586,-0.42377 0.0251,-0.84615 0.03416,-1.26923c0.01185,-0.55067 0.02371,-1.10119 0.06707,-1.65047c0.01645,-0.21 -0.00572,-0.23552 -0.20972,-0.23817c-0.07251,-0.00098 -0.14502,0.00028 -0.21739,0.00307c-0.26941,0.01032 -0.28084,0.01311 -0.29423,0.28447c-0.02859,0.578 -0.06373,1.15628 -0.06665,1.73455c-0.00446,0.89049 -0.02636,1.78127 0.05606,2.67134c0.03165,0.34206 0.04532,0.68788 0.08422,1.02924c0.06512,0.57312 0.16315,1.14233 0.29214,1.70513c0.07767,0.33857 0.15701,0.67714 0.24598,1.01293c0.0502,0.18937 0.24877,0.28168 0.44106,0.22409c0.13917,-0.04169 0.27164,-0.09887 0.40174,-0.16315c0.71535,-0.35321 1.27857,-0.88296 1.75087,-1.51576c1.07205,-1.43642 1.81208,-2.9922 1.73581,-4.8418c-0.0198,-0.47871 -0.11992,-0.93205 -0.3309,-1.36544c-0.38389,-0.7887 -1.29488,-0.95394 -1.94316,-0.54899c-0.55875,0.34903 -0.95338,0.84559 -1.26504,1.41467c-0.37706,0.6883 -0.59445,1.43154 -0.7385,2.18844c-0.03096,-0.21879 -0.0403,-0.44636 -0.04351,-0.67491zM354.26967,336.91684c0.23162,-0.81673 0.56252,-1.58172 1.21094,-2.1685c0.10835,-0.09803 0.22269,-0.18449 0.35224,-0.25044c0.34136,-0.17375 0.66501,-0.0799 0.85661,0.24961c0.16231,0.27903 0.22785,0.58664 0.26704,0.90346c0.14684,1.18932 -0.23469,2.25831 -0.74896,3.29605c-0.39937,0.80557 -0.9294,1.51521 -1.59399,2.12235c-0.15241,0.13917 -0.3263,0.24849 -0.50437,0.3521c-0.07307,0.04253 -0.10249,0.04393 -0.11058,-0.0555c-0.04142,-0.50409 -0.08199,-1.00805 -0.06777,-1.40602c-0.0053,-1.10036 0.06693,-2.08442 0.33885,-3.0431z" data-paper-data="{&quot;glyphName&quot;:&quot;D&quot;,&quot;glyphIndex&quot;:18,&quot;word&quot;:3}" style="fill: rgb(255, 255, 255);"></path>
                <path d="M366.66895,341.92093c-0.0159,-0.81352 -0.05201,-1.62676 -0.0343,-2.20643c0.00404,-1.11974 -0.00474,-2.00438 -0.05899,-2.88929c-0.03918,-0.63796 -0.07014,-1.27564 -0.17612,-1.90649c-0.07586,-0.45208 -0.19006,-0.89175 -0.46644,-1.27327c-0.36562,-0.50479 -0.94683,-0.54356 -1.36502,-0.08492c-0.2404,0.26383 -0.39282,0.57911 -0.5278,0.9043c-0.57423,1.38287 -0.75774,2.84007 -0.8039,4.31986c-0.02161,0.68983 0.03235,1.37981 0.05675,2.06964c0.01632,0.46184 0.06177,0.91992 0.11183,1.37785c0.00823,0.07586 0.0145,0.15325 0.02914,0.22925h0.69778c0.0007,-0.01255 0.00084,-0.02552 -0.00098,-0.04016c-0.01576,-0.12662 -0.02594,-0.25393 -0.03835,-0.38082c-0.03082,-0.31459 -0.05703,-0.62973 -0.09468,-0.94348c-0.01339,-0.11156 0.03556,-0.15116 0.12954,-0.17194c0.5271,-0.11658 1.06076,-0.18225 1.59985,-0.2008c0.21544,-0.00739 0.216,-0.00084 0.21614,0.22339c0.00028,0.35684 0.00321,0.71382 -0.00112,1.07052c-0.00153,0.1294 0.04992,0.18449 0.17863,0.17723c0.08897,-0.00502 0.17835,-0.00056 0.26759,-0.0007c0.28084,-0.00028 0.28572,-0.00042 0.28042,-0.27373zM365.75266,340.03634c-0.55304,-0.00586 -1.09729,0.07 -1.63583,0.19034c-0.10598,0.02371 -0.16203,0.01255 -0.1605,-0.12313c0.00683,-0.59654 -0.02496,-1.19476 0.00906,-1.78949c0.07251,-1.2702 0.26508,-2.51977 0.78661,-3.69682c0.08353,-0.18867 0.16901,-0.37692 0.30301,-0.53603c0.14377,-0.17068 0.20024,-0.16678 0.32491,0.01548c0.17096,0.24975 0.23831,0.53854 0.29283,0.82802c0.10709,0.56838 0.14154,1.14428 0.17626,1.72144c0.04211,0.70057 0.06972,1.40072 0.0647,2.10227c0,0.37357 -0.00376,0.74714 0.00209,1.12072c0.00181,0.12271 -0.03877,0.16859 -0.16315,0.16719z" data-paper-data="{&quot;glyphName&quot;:&quot;A&quot;,&quot;glyphIndex&quot;:19,&quot;word&quot;:3}" style="fill: rgb(255, 255, 255);"></path>
                <path d="M373.29273,336.84782c-0.00586,-0.42377 0.0251,-0.84615 0.03416,-1.26923c0.01185,-0.55067 0.02371,-1.10119 0.06707,-1.65047c0.01645,-0.21 -0.00572,-0.23552 -0.20972,-0.23817c-0.07251,-0.00098 -0.14502,0.00028 -0.21739,0.00307c-0.26941,0.01032 -0.28084,0.01311 -0.29423,0.28447c-0.02859,0.578 -0.06373,1.15628 -0.06665,1.73455c-0.00446,0.89049 -0.02636,1.78127 0.05606,2.67134c0.03165,0.34206 0.04532,0.68788 0.08422,1.02924c0.06512,0.57312 0.16315,1.14233 0.29214,1.70513c0.07767,0.33857 0.15701,0.67714 0.24598,1.01293c0.0502,0.18937 0.24877,0.28168 0.44106,0.22409c0.13917,-0.04169 0.27164,-0.09887 0.40174,-0.16315c0.71535,-0.35321 1.27857,-0.88296 1.75087,-1.51576c1.07205,-1.43642 1.81208,-2.9922 1.73581,-4.8418c-0.0198,-0.47871 -0.11992,-0.93205 -0.3309,-1.36544c-0.38389,-0.7887 -1.29488,-0.95394 -1.94316,-0.54899c-0.55875,0.34903 -0.95338,0.84559 -1.26504,1.41467c-0.37706,0.6883 -0.59445,1.43154 -0.7385,2.18844c-0.03096,-0.21879 -0.0403,-0.44636 -0.04351,-0.67491zM374.20038,336.91684c0.23162,-0.81673 0.56252,-1.58172 1.21094,-2.1685c0.10835,-0.09803 0.22269,-0.18449 0.35224,-0.25044c0.34136,-0.17375 0.66501,-0.0799 0.85661,0.24961c0.16231,0.27903 0.22785,0.58664 0.26704,0.90346c0.14684,1.18932 -0.23469,2.25831 -0.74896,3.29605c-0.39937,0.80557 -0.9294,1.51521 -1.59399,2.12235c-0.15241,0.13917 -0.3263,0.24849 -0.50437,0.3521c-0.07307,0.04253 -0.10249,0.04393 -0.11058,-0.0555c-0.04142,-0.50409 -0.08199,-1.00805 -0.06777,-1.40602c-0.0053,-1.10036 0.06693,-2.08442 0.33885,-3.0431z" data-paper-data="{&quot;glyphName&quot;:&quot;D&quot;,&quot;glyphIndex&quot;:20,&quot;lastGlyphOfWord&quot;:true,&quot;word&quot;:3}" style="fill: rgb(255, 255, 255);"></path>
            </g>
            <g data-paper-data="{&quot;isPrimaryText&quot;:true}" fill-rule="nonzero">
                <path d="M65,307.19598v3.61352c0,5.72407 4.82869,9.36958 10.84057,9.36958h14.32618v-4.6688h-13.59068c-3.22979,0 -4.9566,-1.85473 -4.9566,-4.70078v-3.6455c0,-2.65418 1.72682,-4.70078 4.9566,-4.70078h13.59068v-4.6688h-14.2942c-6.04386,0 -10.87254,3.83737 -10.87254,9.40155z" data-paper-data="{&quot;glyphName&quot;:&quot;C&quot;,&quot;glyphIndex&quot;:0,&quot;firstGlyphOfWord&quot;:true,&quot;word&quot;:1}" style="fill: rgb(255, 255, 255);"></path>
                <path d="M92.82092,297.79443l0.06396,22.38465h6.65144v-0.12791l-0.06396,-17.87574h9.24166c1.88671,0 2.91,1.21517 2.91,2.78209v0.51165c0,1.66286 -1.0233,2.78209 -2.91,2.78209h-8.05847l11.9598,11.92782h7.25902l-7.5788,-7.5788c3.26176,-0.25582 5.75605,-2.3344 5.75605,-5.50023v-3.77341c0,-3.26176 -2.84605,-5.53221 -6.42759,-5.53221z" data-paper-data="{&quot;glyphName&quot;:&quot;R&quot;,&quot;glyphIndex&quot;:1,&quot;word&quot;:1}" style="fill: rgb(255, 255, 255);"></path>
                <path d="M121.66514,310.8095c0,5.56418 3.54957,9.36958 9.17771,9.36958h16.72453v-4.6688h-15.86112c-1.95066,0 -3.42165,-1.27912 -3.42165,-3.51759v-0.99132h18.54728v-4.54089h-18.54728v-1.08725c0,-1.72682 1.11923,-2.91 3.42165,-2.91h15.86112v-4.6688h-16.75651c-5.59616,0 -9.14573,3.83737 -9.14573,9.36958z" data-paper-data="{&quot;glyphName&quot;:&quot;E&quot;,&quot;glyphIndex&quot;:2,&quot;word&quot;:1}" style="fill: rgb(255, 255, 255);"></path>
                <path d="M150.92508,320.17908h16.82047c7.61078,0 11.41617,-4.09319 11.41617,-9.78529v-2.81407c0,-5.6921 -3.80539,-9.78529 -11.41617,-9.78529h-16.82047zM157.32069,302.46323h8.85793c4.15715,0 6.36364,1.56693 6.36364,5.43627v2.14253c0,3.90132 -2.20649,5.46825 -6.36364,5.46825h-8.85793z" data-paper-data="{&quot;glyphName&quot;:&quot;D&quot;,&quot;glyphIndex&quot;:3,&quot;word&quot;:1}" style="fill: rgb(255, 255, 255);"></path>
                <path d="M181.94381,310.8095c0,5.56418 3.54957,9.36958 9.17771,9.36958h16.72453v-4.6688h-15.86112c-1.95066,0 -3.42165,-1.27912 -3.42165,-3.51759v-0.99132h18.54728v-4.54089h-18.54728v-1.08725c0,-1.72682 1.11923,-2.91 3.42165,-2.91h15.86112v-4.6688h-16.75651c-5.59616,0 -9.14573,3.83737 -9.14573,9.36958z" data-paper-data="{&quot;glyphName&quot;:&quot;E&quot;,&quot;glyphIndex&quot;:4,&quot;word&quot;:1}" style="fill: rgb(255, 255, 255);"></path>
                <path d="M211.20375,297.79443v22.38465h6.61946v-16.27684l13.94244,16.27684h9.72133v-22.38465l-6.61946,0.09593v16.43673l-14.13431,-16.53266z" data-paper-data="{&quot;glyphName&quot;:&quot;N&quot;,&quot;glyphIndex&quot;:5,&quot;word&quot;:1}" style="fill: rgb(255, 255, 255);"></path>
                <path d="M245.35633,307.19598v3.61352c0,5.72407 4.82869,9.36958 10.84057,9.36958h14.32618v-4.6688h-13.59068c-3.22979,0 -4.9566,-1.85473 -4.9566,-4.70078v-3.6455c0,-2.65418 1.72682,-4.70078 4.9566,-4.70078h13.59068v-4.6688h-14.2942c-6.04386,0 -10.87254,3.83737 -10.87254,9.40155z" data-paper-data="{&quot;glyphName&quot;:&quot;C&quot;,&quot;glyphIndex&quot;:6,&quot;word&quot;:1}" style="fill: rgb(255, 255, 255);"></path>
                <path d="M273.88077,320.17908h6.61946v-22.38465h-6.61946z" data-paper-data="{&quot;glyphName&quot;:&quot;I&quot;,&quot;glyphIndex&quot;:7,&quot;word&quot;:1}" style="fill: rgb(255, 255, 255);"></path>
                <path d="M283.6021,320.17908h7.0032c0,0 3.74143,-9.84925 6.17177,-15.34947c0.67154,-1.50297 1.43901,-1.88671 3.32572,-1.88671c1.88671,0 2.65418,0.38374 3.32572,1.88671c2.43033,5.50023 6.17177,15.34947 6.17177,15.34947h7.0032c0,0 -5.56418,-14.19826 -7.86661,-18.83508c-1.47099,-2.97396 -3.48561,-3.54957 -6.65144,-3.54957h-3.96528c-3.16583,0 -5.18045,0.57561 -6.65144,3.54957c-2.30242,4.63682 -7.86661,18.83508 -7.86661,18.83508z" data-paper-data="{&quot;glyphName&quot;:&quot;A&quot;,&quot;glyphIndex&quot;:8,&quot;word&quot;:1}" style="fill: rgb(255, 255, 255);"></path>
                <path d="M318.61809,310.8095c0,5.72407 4.82869,9.36958 10.84057,9.36958h14.32618v-4.6688h-13.59068c-3.22979,0 -4.9566,-1.85473 -4.9566,-4.70078v-13.01508h-6.61946z" data-paper-data="{&quot;glyphName&quot;:&quot;L&quot;,&quot;glyphIndex&quot;:9,&quot;word&quot;:1}" style="fill: rgb(255, 255, 255);"></path>
                <path d="M346.85473,310.8095c0,5.56418 3.54957,9.36958 9.17771,9.36958h16.72453v-4.6688h-15.86112c-1.95066,0 -3.42165,-1.27912 -3.42165,-3.51759v-0.99132h18.54728v-4.54089h-18.54728v-1.08725c0,-1.72682 1.11923,-2.91 3.42165,-2.91h15.86112v-4.6688h-16.75651c-5.59616,0 -9.14573,3.83737 -9.14573,9.36958z" data-paper-data="{&quot;glyphName&quot;:&quot;E&quot;,&quot;glyphIndex&quot;:10,&quot;word&quot;:1}" style="fill: rgb(255, 255, 255);"></path>
                <path d="M383.24577,310.64961h12.43947c3.99726,0 3.86935,4.86067 0,4.89265h-17.87574v4.63682h20.49794l-0.03198,-0.03198c4.50891,-0.38374 6.74737,-3.54957 6.81133,-6.74737c0.06396,-3.48561 -2.52627,-7.0032 -7.70672,-7.0032h-12.15167c-3.67748,0 -3.54957,-4.31704 0,-4.31704h18.29146v-4.28506h-21.13751l0.03198,0.03198c-4.15715,0.35176 -6.23572,3.26176 -6.29968,6.20375c-0.06396,3.22979 2.3344,6.58748 7.13111,6.61946z" data-paper-data="{&quot;glyphName&quot;:&quot;S&quot;,&quot;glyphIndex&quot;:11,&quot;lastGlyphOfWord&quot;:true,&quot;word&quot;:1}" style="fill: rgb(255, 255, 255);"></path>
                <path d="M424.6254,310.39379c0,5.6921 3.80539,9.78529 11.41617,9.78529h6.68342c0.60758,0 1.18319,-0.03198 1.72682,-0.06396l-1.21517,-4.381c-0.57561,0.09593 -1.21517,0.12791 -1.95066,0.12791h-3.83737c-4.47693,0 -6.20375,-1.72682 -6.20375,-5.59616v-2.55825c0,-3.90132 1.72682,-5.59616 6.20375,-5.59616h3.83737c4.50891,0 6.23572,1.69484 6.23572,5.59616v2.55825c0,1.18319 -0.15989,2.20649 -0.54363,3.00594l-6.90726,-2.59022l7.54683,9.49749h6.52353v-4.15715l-0.47967,-0.2878l-0.79945,-0.2878c0.86341,-1.43901 1.27912,-3.16583 1.27912,-5.05254v-2.81407c0,-5.6921 -3.80539,-9.78529 -11.41617,-9.78529h-6.68342c-7.61078,0 -11.41617,4.09319 -11.41617,9.78529z" data-paper-data="{&quot;glyphName&quot;:&quot;Q&quot;,&quot;glyphIndex&quot;:12,&quot;firstGlyphOfWord&quot;:true,&quot;word&quot;:2}" style="fill: rgb(255, 255, 255);"></path>
                <path d="M457.94655,297.79443l0.06396,22.38465h6.65144v-0.12791l-0.06396,-17.87574h9.24166c1.88671,0 2.91,1.21517 2.91,2.78209v0.51165c0,1.66286 -1.0233,2.78209 -2.91,2.78209h-8.05847l11.9598,11.92782h7.25902l-7.5788,-7.5788c3.26176,-0.25582 5.75605,-2.3344 5.75605,-5.50023v-3.77341c0,-3.26176 -2.84605,-5.53221 -6.42759,-5.53221z" data-paper-data="{&quot;glyphName&quot;:&quot;R&quot;,&quot;glyphIndex&quot;:13,&quot;lastGlyphOfWord&quot;:true,&quot;word&quot;:2}" style="fill: rgb(255, 255, 255);"></path>
            </g>
            <g data-paper-data="{&quot;isIcon&quot;:&quot;true&quot;,&quot;iconType&quot;:&quot;icon&quot;,&quot;rawIconId&quot;:&quot;1010878&quot;,&quot;selectedEffects&quot;:{&quot;container&quot;:&quot;&quot;,&quot;transformation&quot;:&quot;&quot;,&quot;pattern&quot;:&quot;&quot;},&quot;isDetailed&quot;:false,&quot;fillRule&quot;:&quot;evenodd&quot;,&quot;bounds&quot;:{&quot;x&quot;:202.63389005170302,&quot;y&quot;:127.41537290131399,&quot;width&quot;:144.73221989659396,&quot;height&quot;:145.23596400821046},&quot;iconStyle&quot;:&quot;standalone&quot;,&quot;suitableAsStandaloneIcon&quot;:true}" fill-rule="evenodd">
                <path d="M235.78467,127.41537c-13.19875,0 -24.6263,7.76675 -29.93042,18.94331h39.40208c1.30945,0 2.49104,0.52804 3.34586,1.38286c0.85955,0.85718 1.38997,2.04114 1.38997,3.35534c0,2.62128 -2.11455,4.73583 -4.73583,4.73583h-42.27672c-0.22021,1.54861 -0.34571,3.12564 -0.34571,4.73819c0,1.61018 0.1255,3.18721 0.34571,4.73819v-0.00237h42.27435c2.62128,0 4.73583,2.11455 4.73583,4.73583c0,1.20764 -0.45464,2.30635 -1.19579,3.14222c-0.86666,0.97795 -2.12875,1.59598 -3.54003,1.59598h-39.40208c4.46588,9.40772 13.26979,16.3978 23.81884,18.37501l-17.64095,61.84516c-1.06793,4.27408 -0.12313,8.71629 2.58576,12.18765c2.71126,3.47136 6.79354,5.46277 11.19786,5.46277h18.35843c6.53307,0 12.19949,-4.42563 13.7481,-10.62246l5.03418,-17.7925h11.54595c4.35933,0 8.13615,-2.95042 9.1875,-7.17241l4.73583,-18.94331c0.71275,-2.8486 0.08525,-5.81086 -1.72147,-8.12668c-1.80672,-2.31582 -4.52982,-3.64422 -7.4684,-3.64422h-5.55986l3.57318,-12.62808h23.556l1.16264,-3.48794l20.93709,-62.81837zM346.62194,146.11479l-12.62808,37.88898c-1.21237,3.63001 -3.78156,6.51887 -7.0327,8.17167c-0.64881,0.33151 -1.3284,0.61329 -2.0293,0.84298c-0.34808,0.11366 -0.70564,0.21548 -1.06556,0.30073c-1.0774,0.26284 -2.20453,0.40018 -3.3506,0.40018h-9.71792l22.09973,-66.30157h0.24626c4.6198,0 8.82284,2.15007 11.52463,5.8961c2.70416,3.75314 3.41453,8.41557 1.95353,12.80094z" data-paper-data="{&quot;isPathIcon&quot;:true}" style="fill: rgb(255, 255, 255);"></path>
            </g>
        </g>
    </g>
   
</svg>