<svg class="svg-standalone-icon" width="100%" viewBox="202.63389005170302 127.41537290131399 144.73221989659396 145.23596400821046">
    <g data-paper-data="{&quot;isIcon&quot;:&quot;true&quot;,&quot;iconType&quot;:&quot;icon&quot;,&quot;rawIconId&quot;:&quot;1010878&quot;,&quot;selectedEffects&quot;:{&quot;container&quot;:&quot;&quot;,&quot;transformation&quot;:&quot;&quot;,&quot;pattern&quot;:&quot;&quot;},&quot;isDetailed&quot;:false,&quot;fillRule&quot;:&quot;evenodd&quot;,&quot;bounds&quot;:{&quot;x&quot;:202.63389005170302,&quot;y&quot;:127.41537290131399,&quot;width&quot;:144.73221989659396,&quot;height&quot;:145.23596400821046},&quot;iconStyle&quot;:&quot;standalone&quot;,&quot;suitableAsStandaloneIcon&quot;:true}" fill-rule="evenodd">
        <path d="M235.78467,127.41537c-13.19875,0 -24.6263,7.76675 -29.93042,18.94331h39.40208c1.30945,0 2.49104,0.52804 3.34586,1.38286c0.85955,0.85718 1.38997,2.04114 1.38997,3.35534c0,2.62128 -2.11455,4.73583 -4.73583,4.73583h-42.27672c-0.22021,1.54861 -0.34571,3.12564 -0.34571,4.73819c0,1.61018 0.1255,3.18721 0.34571,4.73819v-0.00237h42.27435c2.62128,0 4.73583,2.11455 4.73583,4.73583c0,1.20764 -0.45464,2.30635 -1.19579,3.14222c-0.86666,0.97795 -2.12875,1.59598 -3.54003,1.59598h-39.40208c4.46588,9.40772 13.26979,16.3978 23.81884,18.37501l-17.64095,61.84516c-1.06793,4.27408 -0.12313,8.71629 2.58576,12.18765c2.71126,3.47136 6.79354,5.46277 11.19786,5.46277h18.35843c6.53307,0 12.19949,-4.42563 13.7481,-10.62246l5.03418,-17.7925h11.54595c4.35933,0 8.13615,-2.95042 9.1875,-7.17241l4.73583,-18.94331c0.71275,-2.8486 0.08525,-5.81086 -1.72147,-8.12668c-1.80672,-2.31582 -4.52982,-3.64422 -7.4684,-3.64422h-5.55986l3.57318,-12.62808h23.556l1.16264,-3.48794l20.93709,-62.81837zM346.62194,146.11479l-12.62808,37.88898c-1.21237,3.63001 -3.78156,6.51887 -7.0327,8.17167c-0.64881,0.33151 -1.3284,0.61329 -2.0293,0.84298c-0.34808,0.11366 -0.70564,0.21548 -1.06556,0.30073c-1.0774,0.26284 -2.20453,0.40018 -3.3506,0.40018h-9.71792l22.09973,-66.30157h0.24626c4.6198,0 8.82284,2.15007 11.52463,5.8961c2.70416,3.75314 3.41453,8.41557 1.95353,12.80094z" data-paper-data="{&quot;isPathIcon&quot;:true}" style="fill: rgb(255, 255, 255);"></path>
    </g>
</svg>