<svg id="SvgjsSvg1040" width="100%" height="100%" xmlns="http://www.w3.org/2000/svg" version="1.1" xlink="http://www.w3.org/1999/xlink" xmlns:svgjs="http://svgjs.com/svgjs" preserveAspectRatio="xMidYMid meet" viewBox="0 -7.520166875828703e-15 269.8860778808594 147.00001525878906" overflow="visible"><defs id="SvgjsDefs1041"><linearGradient id="SvgjsLinearGradient5tKIh8b2hM" gradientUnits="userSpaceOnUse" x1="-2.6505005955695746" y1="96.65049934387204" x2="90.65049809217453" y2="3.3495006561279217"><stop id="SvgjsStop1044" stop-color="#53b6f4" offset="0.05"></stop><stop id="SvgjsStop1045" stop-color="#0c78bb" offset="0.95"></stop></linearGradient></defs><g id="SvgjsG1042" transform="scale(0.529184700268525)" opacity="1"><g id="SvgjsG1046" class="krJSsizv-" transform="translate(161.7192114615105, -1.4210854715202004e-14) scale(2.120058088591895)" light-content="false" non-strokable="false" fill="url(#SvgjsLinearGradient5tKIh8b2hM)"><path d="M44 0l43.301 25v50L44 100 .699 75V25z"></path></g><g id="SvgjsG1047" class="k4r9VV2eCL" transform="translate(193.2315993754241, 44.23109555973022) scale(1.2353949652048666)" light-content="true" non-strokable="false" fill="#ffffff"><path d="M76.934 9.984a4.006 4.006 0 0 1 5.656 0l7.426 7.426a4.006 4.006 0 0 1 0 5.656l-6.54 6.54-9.46-9.461-3.621-3.625zM73.305 22.27l4.422 4.422L26.7 77.719l-4.422-4.422zm-55.36 46.695l51.027-51.027 2.918 2.918-51.027 51.027zM8.816 91.188l8.086-20.438 12.344 12.34c-12.074 4.777-17.746 7.02-20.43 8.098zm70.329-63.083l2.918 2.918-51.035 51.02-2.918-2.918z"></path></g><g id="SvgjsG1048" class="text" transform="translate(255.27352905273438, 277.24581053765627) scale(1)" light-content="false" fill="#1c1c1c"><path d="M-251.31 -0.48C-249.47 0.16 -247.47 0.48 -245.31 0.48C-240.79 0.48 -237.24 -0.77 -234.66 -3.27C-232.08 -5.77 -230.79 -9.28 -230.79 -13.8C-230.79 -16.24 -231.33 -18.19 -232.41 -19.65C-233.49 -21.11 -235.25 -22.62 -237.69 -24.18C-237.97 -24.38 -238.57 -24.77 -239.49 -25.35C-240.41 -25.93 -241.23 -26.61 -241.95 -27.39C-242.67 -28.17 -243.03 -29.2 -243.03 -30.48C-243.03 -31.44 -242.73 -32.36 -242.13 -33.24C-241.53 -34.12 -240.29 -34.56 -238.41 -34.56C-237.41 -34.56 -236.15 -34.28 -234.63 -33.72C-233.79 -33.44 -233.19 -33.3 -232.83 -33.3C-232.07 -33.3 -231.43 -33.93 -230.91 -35.19C-230.39 -36.45 -230.13 -37.62 -230.13 -38.7C-230.13 -39.54 -230.61 -40.24 -231.57 -40.8C-232.45 -41.32 -233.58 -41.73 -234.96 -42.03C-236.34 -42.33 -237.67 -42.48 -238.95 -42.48C-241.47 -42.48 -243.75 -41.94 -245.79 -40.86C-247.83 -39.78 -249.44 -38.21 -250.62 -36.15C-251.8 -34.09 -252.39 -31.68 -252.39 -28.92C-252.39 -26.4 -251.88 -24.4 -250.86 -22.92C-249.84 -21.44 -248.19 -19.98 -245.91 -18.54C-245.79 -18.46 -245.64 -18.37 -245.46 -18.27C-245.28 -18.17 -245.09 -18.04 -244.89 -17.88C-243.25 -16.84 -242.05 -15.95 -241.29 -15.21C-240.53 -14.47 -240.15 -13.5 -240.15 -12.3C-240.15 -10.58 -240.63 -9.33 -241.59 -8.55C-242.55 -7.77 -243.69 -7.38 -245.01 -7.38C-246.09 -7.38 -247.04 -7.53 -247.86 -7.83C-248.68 -8.13 -249.75 -8.64 -251.07 -9.36C-251.55 -9.64 -251.93 -9.78 -252.21 -9.78C-253.01 -9.78 -253.73 -9.1 -254.37 -7.74C-255.01 -6.38 -255.31 -5.12 -255.27 -3.96C-255.27 -3.24 -254.88 -2.58 -254.1 -1.98C-253.32 -1.38 -252.39 -0.88 -251.31 -0.48Z M-224.07 -36.6C-224.27 -35.32 -222.95 -34.68 -220.11 -34.68C-217.47 -34.68 -216.05 -35.32 -215.85 -36.6L-215.49 -40.2C-215.37 -41.48 -216.71 -42.12 -219.51 -42.12C-222.19 -42.12 -223.59 -41.48 -223.71 -40.2ZM-226.05 -1.11C-225.05 -0.05 -223.67 0.48 -221.91 0.48C-220.03 0.48 -218.58 -0.04 -217.56 -1.08C-216.54 -2.12 -216.03 -3.44 -216.03 -5.04C-216.03 -5.48 -216.1 -5.88 -216.24 -6.24C-216.38 -6.6 -216.59 -6.78 -216.87 -6.78C-217.03 -6.78 -217.17 -6.76 -217.29 -6.72C-217.41 -6.68 -217.55 -6.66 -217.71 -6.66C-218.23 -6.66 -218.49 -7.1 -218.49 -7.98C-218.49 -8.5 -218.39 -9.72 -218.19 -11.64C-217.99 -13.56 -217.83 -15 -217.71 -15.96L-216.27 -29.64C-216.27 -30.16 -216.56 -30.6 -217.14 -30.96C-217.72 -31.32 -218.57 -31.5 -219.69 -31.5L-221.37 -31.5C-223.77 -31.5 -225.03 -30.86 -225.15 -29.58L-227.37 -8.52C-227.49 -7.32 -227.55 -6.48 -227.55 -6C-227.55 -3.8 -227.05 -2.17 -226.05 -1.11Z M-212.01 -0.6C-210.33 0.12 -208.43 0.48 -206.31 0.48C-203.99 0.48 -201.95 -0.02 -200.19 -1.02C-198.43 -2.02 -197.09 -3.39 -196.17 -5.13C-195.25 -6.87 -194.79 -8.82 -194.79 -10.98C-194.79 -12.78 -195.17 -14.22 -195.93 -15.3C-196.69 -16.38 -197.71 -17.36 -198.99 -18.24L-200.31 -19.14C-201.23 -19.74 -201.91 -20.25 -202.35 -20.67C-202.79 -21.09 -203.01 -21.62 -203.01 -22.26C-203.01 -23.82 -202.11 -24.6 -200.31 -24.6C-199.47 -24.6 -198.67 -24.42 -197.91 -24.06C-197.15 -23.7 -196.71 -23.52 -196.59 -23.52C-196.07 -23.52 -195.45 -24.2 -194.73 -25.56C-194.01 -26.92 -193.65 -27.94 -193.65 -28.62C-193.65 -29.7 -194.44 -30.51 -196.02 -31.05C-197.6 -31.59 -199.29 -31.86 -201.09 -31.86C-204.05 -31.86 -206.53 -31 -208.53 -29.28C-210.53 -27.56 -211.69 -25.2 -212.01 -22.2C-212.05 -21.92 -212.07 -21.5 -212.07 -20.94C-212.07 -18.94 -211.64 -17.39 -210.78 -16.29C-209.92 -15.19 -208.75 -14.18 -207.27 -13.26C-206.03 -12.5 -205.15 -11.88 -204.63 -11.4C-204.11 -10.92 -203.85 -10.28 -203.85 -9.48C-203.85 -8.64 -204.09 -7.98 -204.57 -7.5C-205.05 -7.02 -205.71 -6.78 -206.55 -6.78C-207.19 -6.78 -207.74 -6.89 -208.2 -7.11C-208.66 -7.33 -209.14 -7.6 -209.64 -7.92C-210.14 -8.24 -210.47 -8.4 -210.63 -8.4C-211.23 -8.4 -211.98 -7.78 -212.88 -6.54C-213.78 -5.3 -214.27 -4.26 -214.35 -3.42C-214.47 -2.26 -213.69 -1.32 -212.01 -0.6Z M-188.34 -1.32C-187.08 -0.12 -185.27 0.48 -182.91 0.48C-180.99 0.48 -179.48 0.02 -178.38 -0.9C-177.28 -1.82 -176.73 -3.1 -176.73 -4.74C-176.73 -5.34 -176.85 -5.83 -177.09 -6.21C-177.33 -6.59 -177.67 -6.78 -178.11 -6.78C-178.31 -6.78 -178.59 -6.74 -178.95 -6.66C-179.31 -6.58 -179.59 -6.54 -179.79 -6.54C-180.79 -6.54 -181.29 -7 -181.29 -7.92C-181.29 -8.48 -180.71 -13.96 -179.55 -24.36L-178.41 -24.36C-177.33 -24.36 -176.48 -25 -175.86 -26.28C-175.24 -27.56 -174.93 -28.86 -174.93 -30.18C-174.93 -30.62 -174.99 -30.93 -175.11 -31.11C-175.23 -31.29 -175.49 -31.38 -175.89 -31.38L-178.83 -31.38L-178.23 -37.14C-178.23 -37.66 -178.52 -38.1 -179.1 -38.46C-179.68 -38.82 -180.53 -39 -181.65 -39L-183.33 -39C-185.73 -39 -186.99 -38.36 -187.11 -37.08L-187.71 -31.38L-188.43 -31.38C-189.95 -31.38 -190.71 -29.76 -190.71 -26.52C-190.71 -25.76 -190.59 -25.21 -190.35 -24.87C-190.11 -24.53 -189.71 -24.36 -189.15 -24.36L-188.43 -24.36C-188.55 -23.36 -188.75 -21.42 -189.03 -18.54C-189.83 -11.34 -190.23 -7.42 -190.23 -6.78C-190.23 -4.34 -189.6 -2.52 -188.34 -1.32Z M-149.97 -17.49C-149.01 -19.19 -148.53 -21.14 -148.53 -23.34C-148.53 -25.46 -149.27 -27.41 -150.75 -29.19C-152.23 -30.97 -154.81 -31.86 -158.49 -31.86C-163.33 -31.86 -166.97 -30.04 -169.41 -26.4C-171.85 -22.76 -173.07 -18.08 -173.07 -12.36C-173.07 -8.28 -172.08 -5.12 -170.1 -2.88C-168.12 -0.64 -165.11 0.48 -161.07 0.48C-159.31 0.48 -157.48 0.2 -155.58 -0.36C-153.68 -0.92 -152.43 -1.74 -151.83 -2.82C-151.31 -3.74 -151.05 -4.9 -151.05 -6.3C-151.05 -7.14 -151.15 -7.83 -151.35 -8.37C-151.55 -8.91 -151.85 -9.18 -152.25 -9.18C-152.49 -9.18 -152.95 -8.94 -153.63 -8.46C-154.51 -7.9 -155.38 -7.44 -156.24 -7.08C-157.1 -6.72 -158.13 -6.54 -159.33 -6.54C-160.81 -6.54 -161.96 -6.97 -162.78 -7.83C-163.6 -8.69 -164.03 -10.26 -164.07 -12.54C-162.87 -12.3 -161.39 -12.18 -159.63 -12.18C-157.51 -12.18 -155.61 -12.64 -153.93 -13.56C-152.25 -14.48 -150.93 -15.79 -149.97 -17.49ZM-161.85 -17.52L-163.65 -17.52C-162.77 -22.4 -161.21 -24.84 -158.97 -24.84C-157.37 -24.84 -156.57 -23.9 -156.57 -22.02C-156.57 -20.5 -157.03 -19.37 -157.95 -18.63C-158.87 -17.89 -160.17 -17.52 -161.85 -17.52Z M-106.38 -6.24C-106.52 -6.6 -106.73 -6.78 -107.01 -6.78C-107.17 -6.78 -107.31 -6.76 -107.43 -6.72C-107.55 -6.68 -107.69 -6.66 -107.85 -6.66C-108.37 -6.66 -108.63 -7.1 -108.63 -7.98L-108.03 -13.74L-107.01 -23.52C-106.93 -24.4 -106.89 -25 -106.89 -25.32C-106.89 -27.48 -107.39 -29.11 -108.39 -30.21C-109.39 -31.31 -110.85 -31.86 -112.77 -31.86C-114.53 -31.86 -116.14 -31.46 -117.6 -30.66C-119.06 -29.86 -120.29 -28.86 -121.29 -27.66C-121.89 -30.46 -123.77 -31.86 -126.93 -31.86C-128.65 -31.86 -130.21 -31.43 -131.61 -30.57C-133.01 -29.71 -134.23 -28.62 -135.27 -27.3C-135.31 -27.66 -135.34 -28.19 -135.36 -28.89C-135.38 -29.59 -135.49 -30.17 -135.69 -30.63C-135.89 -31.09 -136.37 -31.32 -137.13 -31.32C-138.37 -31.32 -139.85 -31.15 -141.57 -30.81C-143.29 -30.47 -144.19 -29.94 -144.27 -29.22C-144.31 -28.94 -144.31 -28.58 -144.27 -28.14C-144.23 -27.7 -144.21 -27.12 -144.21 -26.4C-144.21 -24.88 -144.31 -23.06 -144.51 -20.94L-146.55 -1.8C-146.67 -0.52 -145.59 0.12 -143.31 0.12L-141.21 0.12C-140.05 0.12 -139.17 -0.04 -138.57 -0.36C-137.97 -0.68 -137.65 -1.16 -137.61 -1.8L-135.39 -22.62C-134.35 -23.9 -133.31 -24.54 -132.27 -24.54C-131.55 -24.54 -131.04 -24.36 -130.74 -24C-130.44 -23.64 -130.29 -23.08 -130.29 -22.32L-130.35 -21.48L-132.45 -1.8C-132.57 -0.52 -131.47 0.12 -129.15 0.12L-127.11 0.12C-124.79 0.12 -123.57 -0.52 -123.45 -1.8L-121.23 -22.92C-120.23 -24 -119.19 -24.54 -118.11 -24.54C-117.39 -24.54 -116.88 -24.36 -116.58 -24C-116.28 -23.64 -116.13 -23.08 -116.13 -22.32L-116.19 -21.48L-116.91 -14.22C-117.43 -9.3 -117.69 -6.56 -117.69 -6C-117.69 -3.8 -117.19 -2.17 -116.19 -1.11C-115.19 -0.05 -113.81 0.48 -112.05 0.48C-110.17 0.48 -108.72 -0.04 -107.7 -1.08C-106.68 -2.12 -106.17 -3.44 -106.17 -5.04C-106.17 -5.48 -106.24 -5.88 -106.38 -6.24Z M-101.07 -3C-99.87 -0.64 -97.93 0.54 -95.25 0.54C-92.25 0.54 -89.95 -1 -88.35 -4.08C-87.83 -1.04 -86.09 0.48 -83.13 0.48C-81.25 0.48 -79.8 -0.04 -78.78 -1.08C-77.76 -2.12 -77.25 -3.44 -77.25 -5.04C-77.25 -5.48 -77.32 -5.88 -77.46 -6.24C-77.6 -6.6 -77.81 -6.78 -78.09 -6.78C-78.25 -6.78 -78.39 -6.76 -78.51 -6.72C-78.63 -6.68 -78.77 -6.66 -78.93 -6.66C-79.45 -6.66 -79.71 -7.1 -79.71 -7.98L-79.05 -14.7L-78.15 -23.16C-78.11 -23.68 -78.01 -24.54 -77.85 -25.74C-77.77 -26.46 -77.69 -27.21 -77.61 -27.99C-77.53 -28.77 -77.47 -29.44 -77.43 -30C-77.43 -31 -78.61 -31.5 -80.97 -31.5L-81.69 -31.5C-82.65 -31.5 -83.37 -31.41 -83.85 -31.23C-84.33 -31.05 -84.68 -30.79 -84.9 -30.45C-85.12 -30.11 -85.35 -29.54 -85.59 -28.74C-86.39 -29.66 -87.23 -30.41 -88.11 -30.99C-88.99 -31.57 -90.15 -31.86 -91.59 -31.86C-94.43 -31.86 -96.84 -30.52 -98.82 -27.84C-100.8 -25.16 -102.07 -21.28 -102.63 -16.2C-102.79 -14.36 -102.87 -12.98 -102.87 -12.06C-102.87 -8.38 -102.27 -5.36 -101.07 -3ZM-89.64 -7.62C-90.18 -7.02 -90.81 -6.72 -91.53 -6.72C-93.17 -6.72 -93.99 -8.54 -93.99 -12.18C-93.99 -12.9 -93.91 -14.18 -93.75 -16.02C-93.39 -19.22 -92.85 -21.49 -92.13 -22.83C-91.41 -24.17 -90.45 -24.84 -89.25 -24.84C-88.33 -24.84 -87.51 -24.44 -86.79 -23.64C-86.95 -22.92 -87.17 -21.54 -87.45 -19.5L-88.41 -9.96C-88.69 -9 -89.1 -8.22 -89.64 -7.62Z M-63.69 -2.73C-62.33 -0.59 -60.51 0.48 -58.23 0.48C-56.71 0.48 -55.32 0.04 -54.06 -0.84C-52.8 -1.72 -51.83 -2.86 -51.15 -4.26C-50.71 -1.1 -48.97 0.48 -45.93 0.48C-44.05 0.48 -42.6 -0.04 -41.58 -1.08C-40.56 -2.12 -40.05 -3.44 -40.05 -5.04C-40.05 -5.48 -40.12 -5.88 -40.26 -6.24C-40.4 -6.6 -40.61 -6.78 -40.89 -6.78C-41.05 -6.78 -41.19 -6.76 -41.31 -6.72C-41.43 -6.68 -41.57 -6.66 -41.73 -6.66C-42.25 -6.66 -42.51 -7.1 -42.51 -7.98C-42.51 -8.58 -41.65 -16.92 -39.93 -33L-38.79 -43.32C-38.67 -44.6 -39.81 -45.24 -42.21 -45.24L-43.89 -45.24C-46.29 -45.24 -47.55 -44.6 -47.67 -43.32L-49.05 -30.12C-50.29 -31.28 -51.87 -31.86 -53.79 -31.86C-56.95 -31.86 -59.56 -30.47 -61.62 -27.69C-63.68 -24.91 -64.97 -20.96 -65.49 -15.84C-65.65 -14.56 -65.73 -13.22 -65.73 -11.82C-65.73 -7.9 -65.05 -4.87 -63.69 -2.73ZM-51.27 -9.18C-52.23 -7.58 -53.29 -6.78 -54.45 -6.78C-55.25 -6.78 -55.84 -7.17 -56.22 -7.95C-56.6 -8.73 -56.79 -9.98 -56.79 -11.7C-56.79 -13.02 -56.71 -14.34 -56.55 -15.66C-56.19 -18.94 -55.66 -21.29 -54.96 -22.71C-54.26 -24.13 -53.31 -24.84 -52.11 -24.84C-51.23 -24.84 -50.43 -24.56 -49.71 -24Z M-13.59 -17.49C-12.63 -19.19 -12.15 -21.14 -12.15 -23.34C-12.15 -25.46 -12.89 -27.41 -14.37 -29.19C-15.85 -30.97 -18.43 -31.86 -22.11 -31.86C-26.95 -31.86 -30.59 -30.04 -33.03 -26.4C-35.47 -22.76 -36.69 -18.08 -36.69 -12.36C-36.69 -8.28 -35.7 -5.12 -33.72 -2.88C-31.74 -0.64 -28.73 0.48 -24.69 0.48C-22.93 0.48 -21.1 0.2 -19.2 -0.36C-17.3 -0.92 -16.05 -1.74 -15.45 -2.82C-14.93 -3.74 -14.67 -4.9 -14.67 -6.3C-14.67 -7.14 -14.77 -7.83 -14.97 -8.37C-15.17 -8.91 -15.47 -9.18 -15.87 -9.18C-16.11 -9.18 -16.57 -8.94 -17.25 -8.46C-18.13 -7.9 -19 -7.44 -19.86 -7.08C-20.72 -6.72 -21.75 -6.54 -22.95 -6.54C-24.43 -6.54 -25.58 -6.97 -26.4 -7.83C-27.22 -8.69 -27.65 -10.26 -27.69 -12.54C-26.49 -12.3 -25.01 -12.18 -23.25 -12.18C-21.13 -12.18 -19.23 -12.64 -17.55 -13.56C-15.87 -14.48 -14.55 -15.79 -13.59 -17.49ZM-25.47 -17.52L-27.27 -17.52C-26.39 -22.4 -24.83 -24.84 -22.59 -24.84C-20.99 -24.84 -20.19 -23.9 -20.19 -22.02C-20.19 -20.5 -20.65 -19.37 -21.57 -18.63C-22.49 -17.89 -23.79 -17.52 -25.47 -17.52Z M2.07 -36.6C1.87 -35.32 3.19 -34.68 6.03 -34.68C8.67 -34.68 10.09 -35.32 10.29 -36.6L10.65 -40.2C10.77 -41.48 9.43 -42.12 6.63 -42.12C3.95 -42.12 2.55 -41.48 2.43 -40.2ZM0.09 -1.11C1.09 -0.05 2.47 0.48 4.23 0.48C6.11 0.48 7.56 -0.04 8.58 -1.08C9.6 -2.12 10.11 -3.44 10.11 -5.04C10.11 -5.48 10.04 -5.88 9.9 -6.24C9.76 -6.6 9.55 -6.78 9.27 -6.78C9.11 -6.78 8.97 -6.76 8.85 -6.72C8.73 -6.68 8.59 -6.66 8.43 -6.66C7.91 -6.66 7.65 -7.1 7.65 -7.98C7.65 -8.5 7.75 -9.72 7.95 -11.64C8.15 -13.56 8.31 -15 8.43 -15.96L9.87 -29.64C9.87 -30.16 9.58 -30.6 9 -30.96C8.42 -31.32 7.57 -31.5 6.45 -31.5L4.77 -31.5C2.37 -31.5 1.11 -30.86 0.99 -29.58L-1.23 -8.52C-1.35 -7.32 -1.41 -6.48 -1.41 -6C-1.41 -3.8 -0.91 -2.17 0.09 -1.11Z M39.36 -6.24C39.22 -6.6 39.01 -6.78 38.73 -6.78C38.57 -6.78 38.43 -6.76 38.31 -6.72C38.19 -6.68 38.05 -6.66 37.89 -6.66C37.37 -6.66 37.11 -7.1 37.11 -7.98L37.71 -14.04C38.03 -16.52 38.37 -19.68 38.73 -23.52C38.81 -24.4 38.85 -25 38.85 -25.32C38.85 -27.48 38.35 -29.11 37.35 -30.21C36.35 -31.31 34.87 -31.86 32.91 -31.86C31.23 -31.86 29.68 -31.43 28.26 -30.57C26.84 -29.71 25.61 -28.62 24.57 -27.3C24.53 -27.66 24.5 -28.19 24.48 -28.89C24.46 -29.59 24.35 -30.17 24.15 -30.63C23.95 -31.09 23.47 -31.32 22.71 -31.32C21.47 -31.32 19.99 -31.15 18.27 -30.81C16.55 -30.47 15.65 -29.94 15.57 -29.22C15.53 -28.94 15.53 -28.58 15.57 -28.14C15.61 -27.7 15.63 -27.12 15.63 -26.4C15.63 -24.88 15.53 -23.06 15.33 -20.94L13.29 -1.8C13.17 -0.52 14.25 0.12 16.53 0.12L18.63 0.12C19.79 0.12 20.67 -0.04 21.27 -0.36C21.87 -0.68 22.19 -1.16 22.23 -1.8L24.45 -22.62C25.49 -23.9 26.55 -24.54 27.63 -24.54C28.35 -24.54 28.86 -24.36 29.16 -24C29.46 -23.64 29.61 -23.08 29.61 -22.32L29.55 -21.48L28.23 -8.52C28.11 -7.32 28.05 -6.48 28.05 -6C28.05 -3.8 28.55 -2.17 29.55 -1.11C30.55 -0.05 31.93 0.48 33.69 0.48C35.57 0.48 37.02 -0.04 38.04 -1.08C39.06 -2.12 39.57 -3.44 39.57 -5.04C39.57 -5.48 39.5 -5.88 39.36 -6.24Z M42.87 -12.06C42.87 -3.7 46.61 0.48 54.09 0.48C55.25 0.48 56.56 0.3 58.02 -0.06C59.48 -0.42 60.74 -0.92 61.8 -1.56C62.86 -2.2 63.43 -2.9 63.51 -3.66C63.59 -4.42 63.4 -5.37 62.94 -6.51C62.48 -7.65 61.95 -8.22 61.35 -8.22C61.23 -8.22 60.85 -8.08 60.21 -7.8C60.05 -7.72 59.76 -7.59 59.34 -7.41C58.92 -7.23 58.41 -7.04 57.81 -6.84C57.21 -6.64 56.55 -6.54 55.83 -6.54C54.51 -6.54 53.53 -7.01 52.89 -7.95C52.25 -8.89 51.93 -10.42 51.93 -12.54C51.93 -13.46 51.99 -14.52 52.11 -15.72C52.47 -19 53.12 -21.34 54.06 -22.74C55 -24.14 56.29 -24.84 57.93 -24.84C58.69 -24.84 59.35 -24.73 59.91 -24.51C60.47 -24.29 61.07 -24 61.71 -23.64C62.15 -23.32 62.51 -23.16 62.79 -23.16C63.19 -23.16 63.64 -23.47 64.14 -24.09C64.64 -24.71 65.07 -25.41 65.43 -26.19C65.79 -26.97 65.97 -27.54 65.97 -27.9C65.97 -28.98 65.13 -29.91 63.45 -30.69C61.77 -31.47 59.85 -31.86 57.69 -31.86C49.05 -31.86 44.17 -26.44 43.05 -15.6C42.93 -14.36 42.87 -13.18 42.87 -12.06Z M70.71 -36.6C70.51 -35.32 71.83 -34.68 74.67 -34.68C77.31 -34.68 78.73 -35.32 78.93 -36.6L79.29 -40.2C79.41 -41.48 78.07 -42.12 75.27 -42.12C72.59 -42.12 71.19 -41.48 71.07 -40.2ZM68.73 -1.11C69.73 -0.05 71.11 0.48 72.87 0.48C74.75 0.48 76.2 -0.04 77.22 -1.08C78.24 -2.12 78.75 -3.44 78.75 -5.04C78.75 -5.48 78.68 -5.88 78.54 -6.24C78.4 -6.6 78.19 -6.78 77.91 -6.78C77.75 -6.78 77.61 -6.76 77.49 -6.72C77.37 -6.68 77.23 -6.66 77.07 -6.66C76.55 -6.66 76.29 -7.1 76.29 -7.98C76.29 -8.5 76.39 -9.72 76.59 -11.64C76.79 -13.56 76.95 -15 77.07 -15.96L78.51 -29.64C78.51 -30.16 78.22 -30.6 77.64 -30.96C77.06 -31.32 76.21 -31.5 75.09 -31.5L73.41 -31.5C71.01 -31.5 69.75 -30.86 69.63 -29.58L67.41 -8.52C67.29 -7.32 67.23 -6.48 67.23 -6C67.23 -3.8 67.73 -2.17 68.73 -1.11Z M84.51 -2.73C85.87 -0.59 87.69 0.48 89.97 0.48C91.49 0.48 92.88 0.04 94.14 -0.84C95.4 -1.72 96.37 -2.86 97.05 -4.26C97.49 -1.1 99.23 0.48 102.27 0.48C104.15 0.48 105.6 -0.04 106.62 -1.08C107.64 -2.12 108.15 -3.44 108.15 -5.04C108.15 -5.48 108.08 -5.88 107.94 -6.24C107.8 -6.6 107.59 -6.78 107.31 -6.78C107.15 -6.78 107.01 -6.76 106.89 -6.72C106.77 -6.68 106.63 -6.66 106.47 -6.66C105.95 -6.66 105.69 -7.1 105.69 -7.98C105.69 -8.58 106.55 -16.92 108.27 -33L109.41 -43.32C109.53 -44.6 108.39 -45.24 105.99 -45.24L104.31 -45.24C101.91 -45.24 100.65 -44.6 100.53 -43.32L99.15 -30.12C97.91 -31.28 96.33 -31.86 94.41 -31.86C91.25 -31.86 88.64 -30.47 86.58 -27.69C84.52 -24.91 83.23 -20.96 82.71 -15.84C82.55 -14.56 82.47 -13.22 82.47 -11.82C82.47 -7.9 83.15 -4.87 84.51 -2.73ZM96.93 -9.18C95.97 -7.58 94.91 -6.78 93.75 -6.78C92.95 -6.78 92.36 -7.17 91.98 -7.95C91.6 -8.73 91.41 -9.98 91.41 -11.7C91.41 -13.02 91.49 -14.34 91.65 -15.66C92.01 -18.94 92.54 -21.29 93.24 -22.71C93.94 -24.13 94.89 -24.84 96.09 -24.84C96.97 -24.84 97.77 -24.56 98.49 -24Z M134.61 -17.49C135.57 -19.19 136.05 -21.14 136.05 -23.34C136.05 -25.46 135.31 -27.41 133.83 -29.19C132.35 -30.97 129.77 -31.86 126.09 -31.86C121.25 -31.86 117.61 -30.04 115.17 -26.4C112.73 -22.76 111.51 -18.08 111.51 -12.36C111.51 -8.28 112.5 -5.12 114.48 -2.88C116.46 -0.64 119.47 0.48 123.51 0.48C125.27 0.48 127.1 0.2 129 -0.36C130.9 -0.92 132.15 -1.74 132.75 -2.82C133.27 -3.74 133.53 -4.9 133.53 -6.3C133.53 -7.14 133.43 -7.83 133.23 -8.37C133.03 -8.91 132.73 -9.18 132.33 -9.18C132.09 -9.18 131.63 -8.94 130.95 -8.46C130.07 -7.9 129.2 -7.44 128.34 -7.08C127.48 -6.72 126.45 -6.54 125.25 -6.54C123.77 -6.54 122.62 -6.97 121.8 -7.83C120.98 -8.69 120.55 -10.26 120.51 -12.54C121.71 -12.3 123.19 -12.18 124.95 -12.18C127.07 -12.18 128.97 -12.64 130.65 -13.56C132.33 -14.48 133.65 -15.79 134.61 -17.49ZM122.73 -17.52L120.93 -17.52C121.81 -22.4 123.37 -24.84 125.61 -24.84C127.21 -24.84 128.01 -23.9 128.01 -22.02C128.01 -20.5 127.55 -19.37 126.63 -18.63C125.71 -17.89 124.41 -17.52 122.73 -17.52Z M164.1 -6.24C163.96 -6.6 163.75 -6.78 163.47 -6.78C163.31 -6.78 163.17 -6.76 163.05 -6.72C162.93 -6.68 162.79 -6.66 162.63 -6.66C162.11 -6.66 161.85 -7.1 161.85 -7.98L162.45 -14.04C162.77 -16.52 163.11 -19.68 163.47 -23.52C163.55 -24.4 163.59 -25 163.59 -25.32C163.59 -27.48 163.09 -29.11 162.09 -30.21C161.09 -31.31 159.61 -31.86 157.65 -31.86C155.97 -31.86 154.42 -31.43 153 -30.57C151.58 -29.71 150.35 -28.62 149.31 -27.3C149.27 -27.66 149.24 -28.19 149.22 -28.89C149.2 -29.59 149.09 -30.17 148.89 -30.63C148.69 -31.09 148.21 -31.32 147.45 -31.32C146.21 -31.32 144.73 -31.15 143.01 -30.81C141.29 -30.47 140.39 -29.94 140.31 -29.22C140.27 -28.94 140.27 -28.58 140.31 -28.14C140.35 -27.7 140.37 -27.12 140.37 -26.4C140.37 -24.88 140.27 -23.06 140.07 -20.94L138.03 -1.8C137.91 -0.52 138.99 0.12 141.27 0.12L143.37 0.12C144.53 0.12 145.41 -0.04 146.01 -0.36C146.61 -0.68 146.93 -1.16 146.97 -1.8L149.19 -22.62C150.23 -23.9 151.29 -24.54 152.37 -24.54C153.09 -24.54 153.6 -24.36 153.9 -24C154.2 -23.64 154.35 -23.08 154.35 -22.32L154.29 -21.48L152.97 -8.52C152.85 -7.32 152.79 -6.48 152.79 -6C152.79 -3.8 153.29 -2.17 154.29 -1.11C155.29 -0.05 156.67 0.48 158.43 0.48C160.31 0.48 161.76 -0.04 162.78 -1.08C163.8 -2.12 164.31 -3.44 164.31 -5.04C164.31 -5.48 164.24 -5.88 164.1 -6.24Z M167.61 -12.06C167.61 -3.7 171.35 0.48 178.83 0.48C179.99 0.48 181.3 0.3 182.76 -0.06C184.22 -0.42 185.48 -0.92 186.54 -1.56C187.6 -2.2 188.17 -2.9 188.25 -3.66C188.33 -4.42 188.14 -5.37 187.68 -6.51C187.22 -7.65 186.69 -8.22 186.09 -8.22C185.97 -8.22 185.59 -8.08 184.95 -7.8C184.79 -7.72 184.5 -7.59 184.08 -7.41C183.66 -7.23 183.15 -7.04 182.55 -6.84C181.95 -6.64 181.29 -6.54 180.57 -6.54C179.25 -6.54 178.27 -7.01 177.63 -7.95C176.99 -8.89 176.67 -10.42 176.67 -12.54C176.67 -13.46 176.73 -14.52 176.85 -15.72C177.21 -19 177.86 -21.34 178.8 -22.74C179.74 -24.14 181.03 -24.84 182.67 -24.84C183.43 -24.84 184.09 -24.73 184.65 -24.51C185.21 -24.29 185.81 -24 186.45 -23.64C186.89 -23.32 187.25 -23.16 187.53 -23.16C187.93 -23.16 188.38 -23.47 188.88 -24.09C189.38 -24.71 189.81 -25.41 190.17 -26.19C190.53 -26.97 190.71 -27.54 190.71 -27.9C190.71 -28.98 189.87 -29.91 188.19 -30.69C186.51 -31.47 184.59 -31.86 182.43 -31.86C173.79 -31.86 168.91 -26.44 167.79 -15.6C167.67 -14.36 167.61 -13.18 167.61 -12.06Z M195.45 -36.6C195.25 -35.32 196.57 -34.68 199.41 -34.68C202.05 -34.68 203.47 -35.32 203.67 -36.6L204.03 -40.2C204.15 -41.48 202.81 -42.12 200.01 -42.12C197.33 -42.12 195.93 -41.48 195.81 -40.2ZM193.47 -1.11C194.47 -0.05 195.85 0.48 197.61 0.48C199.49 0.48 200.94 -0.04 201.96 -1.08C202.98 -2.12 203.49 -3.44 203.49 -5.04C203.49 -5.48 203.42 -5.88 203.28 -6.24C203.14 -6.6 202.93 -6.78 202.65 -6.78C202.49 -6.78 202.35 -6.76 202.23 -6.72C202.11 -6.68 201.97 -6.66 201.81 -6.66C201.29 -6.66 201.03 -7.1 201.03 -7.98C201.03 -8.5 201.13 -9.72 201.33 -11.64C201.53 -13.56 201.69 -15 201.81 -15.96L203.25 -29.64C203.25 -30.16 202.96 -30.6 202.38 -30.96C201.8 -31.32 200.95 -31.5 199.83 -31.5L198.15 -31.5C195.75 -31.5 194.49 -30.86 194.37 -29.58L192.15 -8.52C192.03 -7.32 191.97 -6.48 191.97 -6C191.97 -3.8 192.47 -2.17 193.47 -1.11Z M208.95 -3C210.15 -0.64 212.09 0.54 214.77 0.54C217.77 0.54 220.07 -1 221.67 -4.08C222.19 -1.04 223.93 0.48 226.89 0.48C228.77 0.48 230.22 -0.04 231.24 -1.08C232.26 -2.12 232.77 -3.44 232.77 -5.04C232.77 -5.48 232.7 -5.88 232.56 -6.24C232.42 -6.6 232.21 -6.78 231.93 -6.78C231.77 -6.78 231.63 -6.76 231.51 -6.72C231.39 -6.68 231.25 -6.66 231.09 -6.66C230.57 -6.66 230.31 -7.1 230.31 -7.98L230.97 -14.7L231.87 -23.16C231.91 -23.68 232.01 -24.54 232.17 -25.74C232.25 -26.46 232.33 -27.21 232.41 -27.99C232.49 -28.77 232.55 -29.44 232.59 -30C232.59 -31 231.41 -31.5 229.05 -31.5L228.33 -31.5C227.37 -31.5 226.65 -31.41 226.17 -31.23C225.69 -31.05 225.34 -30.79 225.12 -30.45C224.9 -30.11 224.67 -29.54 224.43 -28.74C223.63 -29.66 222.79 -30.41 221.91 -30.99C221.03 -31.57 219.87 -31.86 218.43 -31.86C215.59 -31.86 213.18 -30.52 211.2 -27.84C209.22 -25.16 207.95 -21.28 207.39 -16.2C207.23 -14.36 207.15 -12.98 207.15 -12.06C207.15 -8.38 207.75 -5.36 208.95 -3ZM220.38 -7.62C219.84 -7.02 219.21 -6.72 218.49 -6.72C216.85 -6.72 216.03 -8.54 216.03 -12.18C216.03 -12.9 216.11 -14.18 216.27 -16.02C216.63 -19.22 217.17 -21.49 217.89 -22.83C218.61 -24.17 219.57 -24.84 220.77 -24.84C221.69 -24.84 222.51 -24.44 223.23 -23.64C223.07 -22.92 222.85 -21.54 222.57 -19.5L221.61 -9.96C221.33 -9 220.92 -8.22 220.38 -7.62Z M236.37 -0.6C238.05 0.12 239.95 0.48 242.07 0.48C244.39 0.48 246.43 -0.02 248.19 -1.02C249.95 -2.02 251.29 -3.39 252.21 -5.13C253.13 -6.87 253.59 -8.82 253.59 -10.98C253.59 -12.78 253.21 -14.22 252.45 -15.3C251.69 -16.38 250.67 -17.36 249.39 -18.24L248.07 -19.14C247.15 -19.74 246.47 -20.25 246.03 -20.67C245.59 -21.09 245.37 -21.62 245.37 -22.26C245.37 -23.82 246.27 -24.6 248.07 -24.6C248.91 -24.6 249.71 -24.42 250.47 -24.06C251.23 -23.7 251.67 -23.52 251.79 -23.52C252.31 -23.52 252.93 -24.2 253.65 -25.56C254.37 -26.92 254.73 -27.94 254.73 -28.62C254.73 -29.7 253.94 -30.51 252.36 -31.05C250.78 -31.59 249.09 -31.86 247.29 -31.86C244.33 -31.86 241.85 -31 239.85 -29.28C237.85 -27.56 236.69 -25.2 236.37 -22.2C236.33 -21.92 236.31 -21.5 236.31 -20.94C236.31 -18.94 236.74 -17.39 237.6 -16.29C238.46 -15.19 239.63 -14.18 241.11 -13.26C242.35 -12.5 243.23 -11.88 243.75 -11.4C244.27 -10.92 244.53 -10.28 244.53 -9.48C244.53 -8.64 244.29 -7.98 243.81 -7.5C243.33 -7.02 242.67 -6.78 241.83 -6.78C241.19 -6.78 240.64 -6.89 240.18 -7.11C239.72 -7.33 239.24 -7.6 238.74 -7.92C238.24 -8.24 237.91 -8.4 237.75 -8.4C237.15 -8.4 236.4 -7.78 235.5 -6.54C234.6 -5.3 234.11 -4.26 234.03 -3.42C233.91 -2.26 234.69 -1.32 236.37 -0.6Z"></path></g></g></svg>